<svg xmlns="http://www.w3.org/2000/svg" xmlns:xlink="http://www.w3.org/1999/xlink" width="500" zoomAndPan="magnify" viewBox="0 0 375 374.999991" height="500" preserveAspectRatio="xMidYMid meet" version="1.0"><defs><clipPath id="ca8fb1105f"><path d="M 63.617188 2 L 335.867188 2 L 335.867188 373 L 63.617188 373 Z M 63.617188 2 " clip-rule="nonzero"/></clipPath><clipPath id="240c0e833b"><path d="M 117.726562 55.261719 L 281.976562 55.261719 L 281.976562 219.511719 L 117.726562 219.511719 Z M 117.726562 55.261719 " clip-rule="nonzero"/></clipPath><clipPath id="accd5bb223"><path d="M 171.929688 96.570312 L 290.289062 96.570312 L 290.289062 229.722656 L 171.929688 229.722656 Z M 171.929688 96.570312 " clip-rule="nonzero"/></clipPath><clipPath id="9d8b2000e6"><path d="M 231.109375 96.570312 C 198.425781 96.570312 171.929688 126.308594 171.929688 162.992188 C 171.929688 199.679688 198.425781 229.417969 231.109375 229.417969 C 263.792969 229.417969 290.289062 199.679688 290.289062 162.992188 C 290.289062 126.308594 263.792969 96.570312 231.109375 96.570312 Z M 231.109375 96.570312 " clip-rule="nonzero"/></clipPath><clipPath id="a0da8e0ac2"><path d="M 0.929688 0.570312 L 119.289062 0.570312 L 119.289062 133.441406 L 0.929688 133.441406 Z M 0.929688 0.570312 " clip-rule="nonzero"/></clipPath><clipPath id="5114968377"><path d="M 60.109375 0.570312 C 27.425781 0.570312 0.929688 30.308594 0.929688 66.992188 C 0.929688 103.679688 27.425781 133.417969 60.109375 133.417969 C 92.792969 133.417969 119.289062 103.679688 119.289062 66.992188 C 119.289062 30.308594 92.792969 0.570312 60.109375 0.570312 Z M 60.109375 0.570312 " clip-rule="nonzero"/></clipPath><clipPath id="4f3ee2fa44"><rect x="0" width="120" y="0" height="134"/></clipPath><clipPath id="5836ea894c"><path d="M 153.855469 173.449219 L 245.722656 173.449219 L 245.722656 265.316406 L 153.855469 265.316406 Z M 153.855469 173.449219 " clip-rule="nonzero"/></clipPath><clipPath id="3c904627d7"><path d="M 199.789062 173.449219 C 174.421875 173.449219 153.855469 194.015625 153.855469 219.382812 C 153.855469 244.75 174.421875 265.316406 199.789062 265.316406 C 225.15625 265.316406 245.722656 244.75 245.722656 219.382812 C 245.722656 194.015625 225.15625 173.449219 199.789062 173.449219 Z M 199.789062 173.449219 " clip-rule="nonzero"/></clipPath><clipPath id="3c044d13d0"><path d="M 0.855469 0.449219 L 92.722656 0.449219 L 92.722656 92.316406 L 0.855469 92.316406 Z M 0.855469 0.449219 " clip-rule="nonzero"/></clipPath><clipPath id="aecd22bddf"><path d="M 46.789062 0.449219 C 21.421875 0.449219 0.855469 21.015625 0.855469 46.382812 C 0.855469 71.75 21.421875 92.316406 46.789062 92.316406 C 72.15625 92.316406 92.722656 71.75 92.722656 46.382812 C 92.722656 21.015625 72.15625 0.449219 46.789062 0.449219 Z M 46.789062 0.449219 " clip-rule="nonzero"/></clipPath><clipPath id="717929933a"><rect x="0" width="93" y="0" height="93"/></clipPath><clipPath id="0dcfa73df0"><path d="M 178.023438 186 L 284.523438 186 L 284.523438 254 L 178.023438 254 Z M 178.023438 186 " clip-rule="nonzero"/></clipPath><clipPath id="f72d9b7999"><path d="M 197 116.121094 L 265 116.121094 L 265 184 L 197 184 Z M 197 116.121094 " clip-rule="nonzero"/></clipPath></defs><g clip-path="url(#ca8fb1105f)"><path fill="#189e1e" d="M 199.769531 207.644531 C 159.46875 207.644531 126.773438 174.953125 126.773438 134.609375 C 126.773438 94.328125 159.46875 61.636719 199.769531 61.636719 C 240.113281 61.636719 272.746094 94.328125 272.746094 134.609375 C 272.746094 174.953125 240.113281 207.644531 199.769531 207.644531 Z M 199.769531 2.46875 C 124.582031 2.46875 63.640625 63.410156 63.640625 138.59375 C 63.640625 213.820312 199.769531 372.023438 199.769531 372.023438 C 199.769531 372.023438 335.9375 213.820312 335.9375 138.59375 C 335.9375 63.410156 274.996094 2.46875 199.769531 2.46875 " fill-opacity="1" fill-rule="nonzero"/></g><g clip-path="url(#240c0e833b)"><path fill="#000000" d="M 282 137.402344 C 282 138.746094 281.964844 140.089844 281.898438 141.433594 C 281.832031 142.773438 281.734375 144.113281 281.601562 145.453125 C 281.472656 146.789062 281.304688 148.125 281.109375 149.453125 C 280.910156 150.78125 280.683594 152.105469 280.421875 153.425781 C 280.15625 154.742188 279.863281 156.054688 279.535156 157.359375 C 279.210938 158.664062 278.851562 159.957031 278.460938 161.242188 C 278.070312 162.53125 277.648438 163.804688 277.195312 165.070312 C 276.746094 166.335938 276.261719 167.589844 275.746094 168.832031 C 275.230469 170.074219 274.6875 171.304688 274.113281 172.519531 C 273.539062 173.734375 272.933594 174.933594 272.300781 176.117188 C 271.667969 177.304688 271.003906 178.472656 270.3125 179.625 C 269.621094 180.777344 268.902344 181.914062 268.15625 183.03125 C 267.410156 184.148438 266.636719 185.25 265.835938 186.328125 C 265.035156 187.40625 264.207031 188.46875 263.355469 189.507812 C 262.503906 190.546875 261.625 191.5625 260.722656 192.558594 C 259.820312 193.554688 258.894531 194.527344 257.941406 195.476562 C 256.992188 196.429688 256.019531 197.355469 255.023438 198.257812 C 254.027344 199.160156 253.007812 200.039062 251.96875 200.890625 C 250.929688 201.742188 249.871094 202.570312 248.792969 203.371094 C 247.710938 204.171875 246.613281 204.945312 245.496094 205.691406 C 244.378906 206.4375 243.242188 207.15625 242.089844 207.847656 C 240.9375 208.539062 239.769531 209.203125 238.582031 209.835938 C 237.398438 210.46875 236.199219 211.074219 234.980469 211.648438 C 233.765625 212.222656 232.539062 212.765625 231.296875 213.28125 C 230.054688 213.796875 228.800781 214.28125 227.535156 214.734375 C 226.269531 215.1875 224.996094 215.605469 223.707031 215.996094 C 222.421875 216.386719 221.125 216.746094 219.824219 217.074219 C 218.519531 217.398438 217.207031 217.695312 215.890625 217.957031 C 214.570312 218.21875 213.246094 218.449219 211.917969 218.644531 C 210.589844 218.84375 209.253906 219.007812 207.917969 219.136719 C 206.578125 219.269531 205.238281 219.367188 203.894531 219.433594 C 202.554688 219.5 201.210938 219.535156 199.867188 219.535156 C 198.523438 219.535156 197.179688 219.5 195.835938 219.433594 C 194.492188 219.367188 193.152344 219.269531 191.816406 219.136719 C 190.476562 219.007812 189.144531 218.84375 187.816406 218.644531 C 186.484375 218.449219 185.160156 218.21875 183.84375 217.957031 C 182.523438 217.695312 181.214844 217.398438 179.910156 217.074219 C 178.605469 216.746094 177.3125 216.386719 176.023438 215.996094 C 174.738281 215.605469 173.460938 215.1875 172.195312 214.734375 C 170.929688 214.28125 169.679688 213.796875 168.4375 213.28125 C 167.195312 212.765625 165.964844 212.222656 164.75 211.648438 C 163.535156 211.074219 162.335938 210.46875 161.148438 209.835938 C 159.964844 209.203125 158.796875 208.539062 157.640625 207.847656 C 156.488281 207.15625 155.355469 206.4375 154.238281 205.691406 C 153.117188 204.945312 152.019531 204.171875 150.941406 203.371094 C 149.859375 202.570312 148.800781 201.742188 147.761719 200.890625 C 146.722656 200.039062 145.707031 199.160156 144.710938 198.257812 C 143.714844 197.355469 142.742188 196.429688 141.789062 195.476562 C 140.839844 194.527344 139.914062 193.554688 139.011719 192.558594 C 138.109375 191.5625 137.230469 190.546875 136.378906 189.507812 C 135.523438 188.46875 134.699219 187.40625 133.898438 186.328125 C 133.097656 185.25 132.324219 184.148438 131.578125 183.03125 C 130.828125 181.914062 130.109375 180.777344 129.417969 179.625 C 128.730469 178.472656 128.066406 177.304688 127.433594 176.117188 C 126.800781 174.933594 126.195312 173.734375 125.621094 172.519531 C 125.046875 171.304688 124.5 170.074219 123.988281 168.832031 C 123.472656 167.589844 122.988281 166.335938 122.535156 165.070312 C 122.082031 163.804688 121.660156 162.53125 121.269531 161.242188 C 120.882812 159.957031 120.523438 158.664062 120.195312 157.359375 C 119.871094 156.054688 119.574219 154.742188 119.3125 153.425781 C 119.050781 152.105469 118.820312 150.78125 118.625 149.453125 C 118.425781 148.125 118.261719 146.789062 118.128906 145.453125 C 118 144.113281 117.898438 142.773438 117.832031 141.433594 C 117.765625 140.089844 117.734375 138.746094 117.734375 137.402344 C 117.734375 136.058594 117.765625 134.714844 117.832031 133.371094 C 117.898438 132.03125 118 130.6875 118.128906 129.351562 C 118.261719 128.015625 118.425781 126.679688 118.625 125.351562 C 118.820312 124.019531 119.050781 122.699219 119.3125 121.378906 C 119.574219 120.0625 119.871094 118.75 120.195312 117.445312 C 120.523438 116.140625 120.882812 114.847656 121.269531 113.558594 C 121.660156 112.273438 122.082031 111 122.535156 109.734375 C 122.988281 108.46875 123.472656 107.214844 123.988281 105.972656 C 124.5 104.730469 125.046875 103.5 125.621094 102.285156 C 126.195312 101.070312 126.800781 99.871094 127.433594 98.683594 C 128.066406 97.5 128.730469 96.332031 129.417969 95.179688 C 130.109375 94.023438 130.828125 92.890625 131.578125 91.773438 C 132.324219 90.65625 133.097656 89.554688 133.898438 88.476562 C 134.699219 87.398438 135.523438 86.335938 136.378906 85.296875 C 137.230469 84.257812 138.109375 83.242188 139.011719 82.246094 C 139.914062 81.25 140.839844 80.277344 141.789062 79.324219 C 142.742188 78.375 143.714844 77.449219 144.710938 76.546875 C 145.707031 75.644531 146.722656 74.765625 147.761719 73.914062 C 148.800781 73.0625 149.859375 72.234375 150.941406 71.433594 C 152.019531 70.632812 153.117188 69.859375 154.238281 69.113281 C 155.355469 68.363281 156.488281 67.644531 157.640625 66.957031 C 158.796875 66.265625 159.964844 65.601562 161.148438 64.96875 C 162.335938 64.335938 163.535156 63.730469 164.75 63.15625 C 165.964844 62.582031 167.195312 62.035156 168.4375 61.523438 C 169.679688 61.007812 170.929688 60.523438 172.195312 60.070312 C 173.460938 59.617188 174.738281 59.195312 176.023438 58.808594 C 177.3125 58.417969 178.605469 58.058594 179.910156 57.730469 C 181.214844 57.40625 182.523438 57.109375 183.84375 56.847656 C 185.160156 56.585938 186.484375 56.355469 187.816406 56.160156 C 189.144531 55.960938 190.476562 55.796875 191.816406 55.664062 C 193.152344 55.535156 194.492188 55.433594 195.835938 55.371094 C 197.179688 55.304688 198.523438 55.269531 199.867188 55.269531 C 201.210938 55.269531 202.554688 55.304688 203.894531 55.371094 C 205.238281 55.433594 206.578125 55.535156 207.917969 55.664062 C 209.253906 55.796875 210.589844 55.960938 211.917969 56.160156 C 213.246094 56.355469 214.570312 56.585938 215.890625 56.847656 C 217.207031 57.109375 218.519531 57.40625 219.824219 57.730469 C 221.125 58.058594 222.421875 58.417969 223.707031 58.808594 C 224.996094 59.195312 226.269531 59.617188 227.535156 60.070312 C 228.800781 60.523438 230.054688 61.007812 231.296875 61.523438 C 232.539062 62.035156 233.765625 62.582031 234.980469 63.15625 C 236.199219 63.730469 237.398438 64.335938 238.582031 64.96875 C 239.769531 65.601562 240.9375 66.265625 242.089844 66.957031 C 243.242188 67.644531 244.378906 68.363281 245.496094 69.113281 C 246.613281 69.859375 247.710938 70.632812 248.792969 71.433594 C 249.871094 72.234375 250.929688 73.0625 251.96875 73.914062 C 253.007812 74.765625 254.027344 75.644531 255.023438 76.546875 C 256.019531 77.449219 256.992188 78.375 257.941406 79.324219 C 258.894531 80.277344 259.820312 81.25 260.722656 82.246094 C 261.625 83.242188 262.503906 84.257812 263.355469 85.296875 C 264.207031 86.335938 265.035156 87.398438 265.835938 88.476562 C 266.636719 89.554688 267.410156 90.65625 268.15625 91.773438 C 268.902344 92.890625 269.621094 94.023438 270.3125 95.179688 C 271.003906 96.332031 271.667969 97.5 272.300781 98.683594 C 272.933594 99.871094 273.539062 101.070312 274.113281 102.285156 C 274.6875 103.5 275.230469 104.730469 275.746094 105.972656 C 276.261719 107.214844 276.746094 108.46875 277.195312 109.734375 C 277.648438 111 278.070312 112.273438 278.460938 113.558594 C 278.851562 114.847656 279.210938 116.140625 279.535156 117.445312 C 279.863281 118.75 280.15625 120.0625 280.421875 121.378906 C 280.683594 122.699219 280.910156 124.019531 281.109375 125.351562 C 281.304688 126.679688 281.472656 128.015625 281.601562 129.351562 C 281.734375 130.6875 281.832031 132.03125 281.898438 133.371094 C 281.964844 134.714844 282 136.058594 282 137.402344 Z M 282 137.402344 " fill-opacity="1" fill-rule="nonzero"/></g><path fill="#ffffff" d="M 211.582031 186.933594 C 208.867188 187.953125 207.507812 185.917969 206.023438 183.269531 C 201.386719 174.914062 196.511719 166.6875 191.6875 158.445312 C 191.117188 157.46875 191.125 156.746094 191.65625 155.761719 C 195.691406 148.207031 199.679688 140.632812 203.625 133.035156 C 204.074219 132.171875 204.558594 131.808594 205.605469 131.707031 C 214.253906 130.871094 222.890625 129.921875 231.539062 129.019531 C 234.019531 128.761719 236.515625 128.574219 239.011719 128.300781 C 239.78125 128.214844 240.210938 128.449219 240.648438 129.109375 C 245.289062 136.136719 249.789062 143.238281 253.558594 150.777344 C 253.769531 151.128906 253.871094 151.507812 253.863281 151.917969 C 253.855469 152.328125 253.742188 152.707031 253.519531 153.050781 C 248.101562 163.109375 242.722656 173.179688 237.375 183.261719 C 236.8125 184.320312 235.972656 184.324219 235.078125 184.484375 C 227.304688 185.855469 219.472656 186.671875 211.582031 186.933594 Z M 211.582031 186.933594 " fill-opacity="1" fill-rule="nonzero"/><path fill="#ffffff" d="M 218.097656 74.757812 C 221.335938 73.910156 224.347656 75.507812 227.1875 78.949219 C 233.523438 86.617188 240.300781 93.914062 246.933594 101.332031 C 247.464844 101.921875 247.347656 102.367188 247.152344 102.996094 C 245.152344 109.539062 242.429688 115.808594 239.960938 122.171875 C 239.863281 122.5 239.671875 122.765625 239.398438 122.964844 C 239.121094 123.167969 238.8125 123.269531 238.472656 123.265625 C 230.910156 124.011719 223.347656 124.765625 215.789062 125.527344 C 212.421875 125.867188 209.058594 126.207031 205.699219 126.609375 C 205.421875 126.667969 205.152344 126.648438 204.890625 126.550781 C 204.625 126.449219 204.410156 126.285156 204.242188 126.058594 C 200.085938 121.304688 195.851562 116.648438 191.746094 111.867188 C 190.253906 110.125 188.644531 108.511719 187.023438 106.910156 C 186.394531 106.285156 186.21875 105.757812 186.507812 104.894531 C 189.503906 96.011719 192.46875 87.117188 195.398438 78.214844 C 195.738281 77.195312 196.125 76.691406 197.253906 76.554688 C 203.820312 75.742188 210.40625 75.234375 218.097656 74.757812 Z M 218.097656 74.757812 " fill-opacity="1" fill-rule="nonzero"/><path fill="#ffffff" d="M 158.304688 154.921875 C 160.226562 155.378906 162.039062 155.804688 163.855469 156.253906 C 170.867188 157.964844 177.949219 159.304688 185.101562 160.269531 C 186.460938 160.457031 187.347656 160.949219 188.085938 162.261719 C 193.082031 171.070312 198.199219 179.8125 203.277344 188.574219 C 203.617188 189.15625 203.914062 189.640625 203.367188 190.375 C 200.371094 194.367188 197.414062 198.394531 194.503906 202.453125 C 193.792969 203.449219 193.148438 203.765625 191.835938 203.519531 C 180.769531 201.460938 169.679688 199.511719 158.589844 197.566406 C 157.953125 197.484375 157.4375 197.1875 157.046875 196.679688 C 152.355469 190.824219 148.21875 184.59375 144.640625 177.996094 C 144.148438 177.097656 144.191406 176.5 144.753906 175.621094 C 148.992188 169.078125 153.152344 162.484375 157.347656 155.917969 C 157.609375 155.519531 157.734375 154.921875 158.304688 154.921875 Z M 158.304688 154.921875 " fill-opacity="1" fill-rule="nonzero"/><path fill="#ffffff" d="M 175.511719 67.371094 C 177.109375 68.019531 178.710938 68.605469 180.269531 69.308594 C 183.667969 70.882812 186.921875 72.71875 190.023438 74.820312 C 190.726562 75.289062 190.902344 75.71875 190.609375 76.585938 C 187.792969 84.972656 185.035156 93.382812 182.265625 101.785156 C 182.066406 102.46875 181.628906 102.921875 180.953125 103.144531 C 171.957031 106.710938 163.386719 111.109375 155.246094 116.339844 C 154.609375 116.746094 154.183594 116.679688 153.582031 116.3125 C 148.273438 113.148438 142.953125 109.988281 137.613281 106.882812 C 136.722656 106.363281 136.523438 105.863281 136.859375 104.894531 C 138.832031 99.210938 140.898438 93.550781 144.046875 88.410156 C 145.613281 85.84375 148.101562 83.9375 150.371094 81.953125 C 157.554688 75.636719 165.65625 70.871094 174.671875 67.667969 Z M 175.511719 67.371094 " fill-opacity="1" fill-rule="nonzero"/><path fill="#ffffff" d="M 124.894531 138.203125 C 124.855469 132.667969 125.46875 127.207031 126.734375 121.816406 C 127.132812 120.15625 128.265625 118.648438 129.191406 117.148438 C 130.417969 115.15625 131.792969 113.257812 133.066406 111.292969 C 133.457031 110.6875 133.71875 110.433594 134.484375 110.894531 C 139.957031 114.183594 145.453125 117.4375 150.976562 120.65625 C 151.65625 121.046875 151.707031 121.542969 151.730469 122.195312 C 151.921875 127.195312 151.988281 132.195312 152.582031 137.171875 C 153.039062 140.984375 153.519531 144.804688 154.324219 148.5625 C 154.488281 149.210938 154.507812 149.867188 154.378906 150.523438 C 154.253906 151.183594 153.992188 151.785156 153.601562 152.328125 C 149.449219 158.671875 145.375 165.066406 141.371094 171.515625 C 140.761719 172.488281 140.351562 172.496094 139.472656 171.917969 C 136.601562 170.019531 133.980469 167.8125 131.285156 165.683594 C 128.800781 163.71875 128.332031 160.925781 127.574219 158.230469 C 125.746094 151.679688 124.855469 145.003906 124.894531 138.203125 Z M 124.894531 138.203125 " fill-opacity="1" fill-rule="nonzero"/><path fill="#ffffff" d="M 274.589844 144.371094 C 274.378906 147.015625 274.03125 149.648438 273.542969 152.257812 C 273.054688 154.867188 272.429688 157.445312 271.667969 159.988281 C 270.90625 162.535156 270.007812 165.03125 268.980469 167.480469 C 267.953125 169.925781 266.796875 172.316406 265.515625 174.640625 C 264.230469 176.964844 262.828125 179.21875 261.308594 181.394531 C 259.785156 183.570312 258.152344 185.660156 256.40625 187.664062 C 254.664062 189.664062 252.816406 191.570312 250.867188 193.375 C 248.921875 195.183594 246.882812 196.878906 244.753906 198.46875 C 244.039062 199.003906 243.800781 198.871094 243.699219 198.035156 C 243.21875 194.480469 242.453125 190.996094 241.394531 187.570312 C 241.226562 187 241.308594 186.472656 241.644531 185.984375 C 247.332031 175.378906 253.011719 164.769531 258.691406 154.160156 C 259.027344 153.558594 259.519531 153.132812 260.160156 152.878906 C 265.1875 150.5 270.070312 147.871094 274.589844 144.371094 Z M 274.589844 144.371094 " fill-opacity="1" fill-rule="nonzero"/><path fill="#ffffff" d="M 228.34375 68.882812 C 246.511719 76.667969 259.699219 89.347656 268.210938 107.371094 C 266.359375 106.253906 264.785156 105.269531 263.179688 104.335938 C 259.765625 102.355469 256.207031 100.667969 252.515625 99.273438 C 251.964844 99.097656 251.496094 98.796875 251.101562 98.375 C 243.574219 89.878906 236.042969 81.386719 228.511719 72.898438 C 227.484375 71.734375 228.171875 70.359375 228.34375 68.882812 Z M 228.34375 68.882812 " fill-opacity="1" fill-rule="nonzero"/><path fill="#fefefe" d="M 163.886719 203.730469 C 170.179688 204.832031 176.46875 205.933594 182.753906 207.039062 C 185.257812 207.480469 187.75 208.023438 190.261719 208.398438 C 191.757812 208.605469 193.183594 209.046875 194.535156 209.71875 C 197.078125 210.992188 199.691406 212.085938 202.382812 213.003906 C 195.128906 214.066406 178.070312 212.167969 163.601562 204.046875 C 163.5 203.757812 163.570312 203.644531 163.886719 203.730469 Z M 163.886719 203.730469 " fill-opacity="1" fill-rule="nonzero"/><g clip-path="url(#accd5bb223)"><g clip-path="url(#9d8b2000e6)"><g transform="matrix(1, 0, 0, 1, 171, 96)"><g clip-path="url(#4f3ee2fa44)"><g clip-path="url(#a0da8e0ac2)"><g clip-path="url(#5114968377)"><path fill="#189e1e" d="M 0.929688 0.570312 L 119.289062 0.570312 L 119.289062 133.261719 L 0.929688 133.261719 Z M 0.929688 0.570312 " fill-opacity="1" fill-rule="nonzero"/></g></g></g></g></g></g><g clip-path="url(#5836ea894c)"><g clip-path="url(#3c904627d7)"><g transform="matrix(1, 0, 0, 1, 153, 173)"><g clip-path="url(#717929933a)"><g clip-path="url(#3c044d13d0)"><g clip-path="url(#aecd22bddf)"><path fill="#189e1e" d="M 0.855469 0.449219 L 92.722656 0.449219 L 92.722656 92.316406 L 0.855469 92.316406 Z M 0.855469 0.449219 " fill-opacity="1" fill-rule="nonzero"/></g></g></g></g></g></g><g clip-path="url(#0dcfa73df0)"><path fill="#ffffff" d="M 260.886719 186.714844 C 252.761719 193.285156 242.378906 197.21875 231.109375 197.21875 C 219.894531 197.21875 209.511719 193.300781 201.386719 186.714844 C 187.304688 196.214844 178.023438 212.402344 178.023438 230.691406 L 178.023438 244.835938 C 178.023438 249.867188 182.171875 253.957031 187.1875 253.957031 L 275.085938 253.957031 C 280.117188 253.957031 284.195312 249.867188 284.195312 244.835938 L 284.195312 230.691406 C 284.195312 216 278.277344 202.742188 268.675781 193.128906 C 266.296875 190.75 263.699219 188.601562 260.886719 186.714844 Z M 260.886719 186.714844 " fill-opacity="1" fill-rule="nonzero"/></g><g clip-path="url(#f72d9b7999)"><path fill="#ffffff" d="M 231.136719 183.421875 C 249.71875 183.421875 264.757812 168.367188 264.757812 149.800781 C 264.757812 131.238281 249.703125 116.167969 231.136719 116.167969 C 212.570312 116.167969 197.515625 131.222656 197.515625 149.789062 C 197.515625 168.355469 212.558594 183.421875 231.136719 183.421875 Z M 231.136719 183.421875 " fill-opacity="1" fill-rule="nonzero"/></g></svg>