<svg xmlns="http://www.w3.org/2000/svg" xmlns:xlink="http://www.w3.org/1999/xlink" width="500" zoomAndPan="magnify" viewBox="0 0 375 157.92" height="200" preserveAspectRatio="xMidYMid meet" version="1.2"><defs><clipPath id="841a81ee85"><path d="M 15.085938 43 L 62 43 L 62 107 L 15.085938 107 Z M 15.085938 43 "/></clipPath><clipPath id="f61c6c3987"><path d="M 24.402344 52.199219 L 52.886719 52.199219 L 52.886719 80.683594 L 24.402344 80.683594 Z M 24.402344 52.199219 "/></clipPath><clipPath id="c611825e7a"><path d="M 33.730469 59.308594 L 54.105469 59.308594 L 54.105469 82.230469 L 33.730469 82.230469 Z M 33.730469 59.308594 "/></clipPath><clipPath id="c565966f11"><path d="M 43.917969 59.308594 C 38.292969 59.308594 33.730469 64.429688 33.730469 70.742188 C 33.730469 77.058594 38.292969 82.179688 43.917969 82.179688 C 49.546875 82.179688 54.105469 77.058594 54.105469 70.742188 C 54.105469 64.429688 49.546875 59.308594 43.917969 59.308594 Z M 43.917969 59.308594 "/></clipPath><clipPath id="3e34729e9c"><path d="M 0.730469 0.308594 L 21.105469 0.308594 L 21.105469 23.230469 L 0.730469 23.230469 Z M 0.730469 0.308594 "/></clipPath><clipPath id="76ad484a92"><path d="M 10.917969 0.308594 C 5.292969 0.308594 0.730469 5.429688 0.730469 11.742188 C 0.730469 18.058594 5.292969 23.179688 10.917969 23.179688 C 16.546875 23.179688 21.105469 18.058594 21.105469 11.742188 C 21.105469 5.429688 16.546875 0.308594 10.917969 0.308594 Z M 10.917969 0.308594 "/></clipPath><clipPath id="f74b67fa16"><rect x="0" width="22" y="0" height="24"/></clipPath><clipPath id="0db0bd8151"><path d="M 30.621094 72.542969 L 46.433594 72.542969 L 46.433594 88.359375 L 30.621094 88.359375 Z M 30.621094 72.542969 "/></clipPath><clipPath id="eee670e2ab"><path d="M 38.527344 72.542969 C 34.160156 72.542969 30.621094 76.082031 30.621094 80.449219 C 30.621094 84.816406 34.160156 88.359375 38.527344 88.359375 C 42.894531 88.359375 46.433594 84.816406 46.433594 80.449219 C 46.433594 76.082031 42.894531 72.542969 38.527344 72.542969 Z M 38.527344 72.542969 "/></clipPath><clipPath id="21652e692b"><path d="M 0.621094 0.542969 L 16.433594 0.542969 L 16.433594 16.359375 L 0.621094 16.359375 Z M 0.621094 0.542969 "/></clipPath><clipPath id="7e98af9a80"><path d="M 8.527344 0.542969 C 4.160156 0.542969 0.621094 4.082031 0.621094 8.449219 C 0.621094 12.816406 4.160156 16.359375 8.527344 16.359375 C 12.894531 16.359375 16.433594 12.816406 16.433594 8.449219 C 16.433594 4.082031 12.894531 0.542969 8.527344 0.542969 Z M 8.527344 0.542969 "/></clipPath><clipPath id="4e683c8c27"><rect x="0" width="17" y="0" height="17"/></clipPath><clipPath id="e113546ef7"><path d="M 34.78125 74 L 52.773438 74 L 52.773438 86.664062 L 34.78125 86.664062 Z M 34.78125 74 "/></clipPath><clipPath id="76c5204bbc"><path d="M 38 62.675781 L 50 62.675781 L 50 75 L 38 75 Z M 38 62.675781 "/></clipPath></defs><g id="02aef380c0"><g style="fill:#c5fbc8;fill-opacity:1;"><g transform="translate(78.881435, 96.049455)"><path style="stroke:none" d="M 26.125 -45 L 44.296875 0 L 33.28125 0 L 29.953125 -9 L 12.8125 -9 L 9.484375 0 L -1.53125 0 L 16.640625 -45 Z M 26.453125 -18 L 21.4375 -31.09375 L 21.328125 -31.09375 L 16.3125 -18 Z M 26.453125 -18 "/></g></g><g style="fill:#c5fbc8;fill-opacity:1;"><g transform="translate(121.636828, 96.049455)"><path style="stroke:none" d="M 3.265625 0 L 3.265625 -27.984375 L 12.921875 -27.984375 L 12.921875 -23.953125 L 13.03125 -23.953125 C 13.101562 -24.097656 13.222656 -24.273438 13.390625 -24.484375 C 13.554688 -24.703125 13.910156 -25.082031 14.453125 -25.625 C 14.992188 -26.175781 15.570312 -26.671875 16.1875 -27.109375 C 16.8125 -27.546875 17.613281 -27.9375 18.59375 -28.28125 C 19.582031 -28.625 20.582031 -28.796875 21.59375 -28.796875 C 22.65625 -28.796875 23.691406 -28.648438 24.703125 -28.359375 C 25.722656 -28.066406 26.472656 -27.773438 26.953125 -27.484375 L 27.703125 -27.0625 L 23.671875 -18.875 C 22.472656 -19.894531 20.800781 -20.40625 18.65625 -20.40625 C 17.488281 -20.40625 16.488281 -20.148438 15.65625 -19.640625 C 14.820312 -19.128906 14.226562 -18.507812 13.875 -17.78125 C 13.53125 -17.050781 13.285156 -16.429688 13.140625 -15.921875 C 12.992188 -15.410156 12.921875 -15.015625 12.921875 -14.734375 L 12.921875 0 Z M 3.265625 0 "/></g></g><g style="fill:#c5fbc8;fill-opacity:1;"><g transform="translate(148.795233, 96.049455)"><path style="stroke:none" d="M 31.578125 -12.65625 L 11.296875 -12.65625 C 11.296875 -10.6875 11.929688 -9.226562 13.203125 -8.28125 C 14.472656 -7.34375 15.851562 -6.875 17.34375 -6.875 C 18.90625 -6.875 20.140625 -7.082031 21.046875 -7.5 C 21.960938 -7.914062 23.003906 -8.742188 24.171875 -9.984375 L 31.140625 -6.484375 C 28.234375 -1.617188 23.398438 0.8125 16.640625 0.8125 C 12.421875 0.8125 8.800781 -0.628906 5.78125 -3.515625 C 2.757812 -6.410156 1.25 -9.894531 1.25 -13.96875 C 1.25 -18.039062 2.757812 -21.53125 5.78125 -24.4375 C 8.800781 -27.34375 12.421875 -28.796875 16.640625 -28.796875 C 21.078125 -28.796875 24.6875 -27.515625 27.46875 -24.953125 C 30.25 -22.390625 31.640625 -18.726562 31.640625 -13.96875 C 31.640625 -13.3125 31.617188 -12.875 31.578125 -12.65625 Z M 11.5625 -18 L 22.203125 -18 C 21.984375 -19.457031 21.410156 -20.578125 20.484375 -21.359375 C 19.554688 -22.140625 18.363281 -22.53125 16.90625 -22.53125 C 15.3125 -22.53125 14.039062 -22.109375 13.09375 -21.265625 C 12.144531 -20.429688 11.632812 -19.34375 11.5625 -18 Z M 11.5625 -18 "/></g></g><g style="fill:#c5fbc8;fill-opacity:1;"><g transform="translate(181.679799, 96.049455)"><path style="stroke:none" d="M 3.265625 0 L 3.265625 -27.984375 L 12.921875 -27.984375 L 12.921875 -25.03125 L 13.03125 -25.03125 C 15.539062 -27.539062 18.21875 -28.796875 21.0625 -28.796875 C 22.4375 -28.796875 23.804688 -28.613281 25.171875 -28.25 C 26.535156 -27.882812 27.84375 -27.320312 29.09375 -26.5625 C 30.351562 -25.800781 31.375 -24.71875 32.15625 -23.3125 C 32.9375 -21.914062 33.328125 -20.289062 33.328125 -18.4375 L 33.328125 0 L 23.671875 0 L 23.671875 -15.8125 C 23.671875 -17.269531 23.207031 -18.539062 22.28125 -19.625 C 21.351562 -20.71875 20.144531 -21.265625 18.65625 -21.265625 C 17.195312 -21.265625 15.875 -20.703125 14.6875 -19.578125 C 13.507812 -18.453125 12.921875 -17.195312 12.921875 -15.8125 L 12.921875 0 Z M 3.265625 0 "/></g></g><g style="fill:#c5fbc8;fill-opacity:1;"><g transform="translate(217.727397, 96.049455)"><path style="stroke:none" d="M 5.171875 -3.46875 C 2.554688 -6.320312 1.25 -9.820312 1.25 -13.96875 C 1.25 -18.113281 2.554688 -21.617188 5.171875 -24.484375 C 7.796875 -27.359375 11.125 -28.796875 15.15625 -28.796875 C 18.875 -28.796875 21.929688 -27.632812 24.328125 -25.3125 L 24.328125 -27.984375 L 33.984375 -27.984375 L 33.984375 0 L 24.4375 0 L 24.4375 -3.15625 L 24.328125 -3.15625 C 21.929688 -0.507812 18.875 0.8125 15.15625 0.8125 C 11.125 0.8125 7.796875 -0.613281 5.171875 -3.46875 Z M 13.390625 -18.703125 C 12.140625 -17.472656 11.515625 -15.894531 11.515625 -13.96875 C 11.515625 -12.039062 12.113281 -10.46875 13.3125 -9.25 C 14.507812 -8.03125 16.09375 -7.421875 18.0625 -7.421875 C 19.945312 -7.421875 21.5 -8.035156 22.71875 -9.265625 C 23.9375 -10.503906 24.546875 -12.070312 24.546875 -13.96875 C 24.546875 -15.894531 23.914062 -17.472656 22.65625 -18.703125 C 21.40625 -19.941406 19.875 -20.5625 18.0625 -20.5625 C 16.195312 -20.5625 14.640625 -19.941406 13.390625 -18.703125 Z M 13.390625 -18.703125 "/></g></g><g style="fill:#189e1e;fill-opacity:1;"><g transform="translate(254.983623, 96.049455)"><path style="stroke:none" d="M 13.53125 -18.0625 L 13.53125 0 L 3.265625 0 L 3.265625 -45 L 13.53125 -45 L 13.53125 -27.0625 L 28.03125 -27.0625 L 28.03125 -45 L 38.296875 -45 L 38.296875 0 L 28.03125 0 L 28.03125 -18.0625 Z M 13.53125 -18.0625 "/></g></g><g style="fill:#189e1e;fill-opacity:1;"><g transform="translate(296.539252, 96.049455)"><path style="stroke:none" d="M 12.375 -27.984375 L 12.375 -14.671875 C 12.375 -11.910156 12.789062 -9.945312 13.625 -8.78125 C 14.46875 -7.613281 15.890625 -7.03125 17.890625 -7.03125 C 19.890625 -7.03125 21.304688 -7.613281 22.140625 -8.78125 C 22.984375 -9.945312 23.40625 -11.910156 23.40625 -14.671875 L 23.40625 -27.984375 L 33.0625 -27.984375 L 33.0625 -12.328125 C 33.0625 -7.671875 31.847656 -4.316406 29.421875 -2.265625 C 27.003906 -0.210938 23.160156 0.8125 17.890625 0.8125 C 12.617188 0.8125 8.773438 -0.210938 6.359375 -2.265625 C 3.941406 -4.316406 2.734375 -7.671875 2.734375 -12.328125 L 2.734375 -27.984375 Z M 12.375 -27.984375 "/></g></g><g style="fill:#189e1e;fill-opacity:1;"><g transform="translate(332.314173, 96.049455)"><path style="stroke:none" d="M 32.0625 -24.484375 C 34.6875 -21.617188 36 -18.113281 36 -13.96875 C 36 -9.820312 34.6875 -6.320312 32.0625 -3.46875 C 29.445312 -0.613281 26.125 0.8125 22.09375 0.8125 C 18.382812 0.8125 15.328125 -0.507812 12.921875 -3.15625 L 12.8125 -3.15625 L 12.8125 0 L 3.265625 0 L 3.265625 -46.90625 L 12.921875 -46.90625 L 12.921875 -25.3125 C 15.328125 -27.632812 18.382812 -28.796875 22.09375 -28.796875 C 26.125 -28.796875 29.445312 -27.359375 32.0625 -24.484375 Z M 23.9375 -9.25 C 25.144531 -10.46875 25.75 -12.039062 25.75 -13.96875 C 25.75 -15.894531 25.117188 -17.472656 23.859375 -18.703125 C 22.609375 -19.941406 21.054688 -20.5625 19.203125 -20.5625 C 17.378906 -20.5625 15.835938 -19.941406 14.578125 -18.703125 C 13.328125 -17.472656 12.703125 -15.894531 12.703125 -13.96875 C 12.703125 -12.070312 13.3125 -10.503906 14.53125 -9.265625 C 15.75 -8.035156 17.304688 -7.421875 19.203125 -7.421875 C 21.160156 -7.421875 22.738281 -8.03125 23.9375 -9.25 Z M 23.9375 -9.25 "/></g></g><g clip-rule="nonzero" clip-path="url(#841a81ee85)"><path style=" stroke:none;fill-rule:nonzero;fill:#189e1e;fill-opacity:1;" d="M 38.519531 78.425781 C 31.585938 78.425781 25.957031 72.800781 25.957031 65.855469 C 25.957031 58.925781 31.585938 53.296875 38.519531 53.296875 C 45.464844 53.296875 51.082031 58.925781 51.082031 65.855469 C 51.082031 72.800781 45.464844 78.425781 38.519531 78.425781 Z M 38.519531 43.113281 C 25.582031 43.113281 15.089844 53.601562 15.089844 66.542969 C 15.089844 79.492188 38.519531 106.71875 38.519531 106.71875 C 38.519531 106.71875 61.957031 79.492188 61.957031 66.542969 C 61.957031 53.601562 51.46875 43.113281 38.519531 43.113281 "/></g><g clip-rule="nonzero" clip-path="url(#f61c6c3987)"><path style=" stroke:none;fill-rule:nonzero;fill:#000000;fill-opacity:1;" d="M 52.890625 66.445312 C 52.890625 67.378906 52.800781 68.304688 52.617188 69.222656 C 52.433594 70.140625 52.164062 71.03125 51.808594 71.894531 C 51.449219 72.757812 51.011719 73.578125 50.492188 74.355469 C 49.972656 75.136719 49.378906 75.855469 48.71875 76.515625 C 48.058594 77.175781 47.339844 77.769531 46.5625 78.289062 C 45.78125 78.808594 44.960938 79.246094 44.097656 79.605469 C 43.234375 79.960938 42.34375 80.230469 41.425781 80.414062 C 40.507812 80.597656 39.582031 80.6875 38.648438 80.6875 C 37.710938 80.6875 36.785156 80.597656 35.867188 80.414062 C 34.949219 80.230469 34.058594 79.960938 33.195312 79.605469 C 32.332031 79.246094 31.511719 78.808594 30.734375 78.289062 C 29.957031 77.769531 29.238281 77.175781 28.574219 76.515625 C 27.914062 75.855469 27.324219 75.136719 26.804688 74.355469 C 26.285156 73.578125 25.84375 72.757812 25.488281 71.894531 C 25.128906 71.03125 24.859375 70.140625 24.675781 69.222656 C 24.496094 68.304688 24.402344 67.378906 24.402344 66.445312 C 24.402344 65.507812 24.496094 64.582031 24.675781 63.664062 C 24.859375 62.746094 25.128906 61.855469 25.488281 60.992188 C 25.84375 60.128906 26.285156 59.308594 26.804688 58.53125 C 27.324219 57.753906 27.914062 57.03125 28.574219 56.371094 C 29.238281 55.710938 29.957031 55.121094 30.734375 54.601562 C 31.511719 54.082031 32.332031 53.640625 33.195312 53.285156 C 34.058594 52.925781 34.949219 52.65625 35.867188 52.472656 C 36.785156 52.292969 37.710938 52.199219 38.648438 52.199219 C 39.582031 52.199219 40.507812 52.292969 41.425781 52.472656 C 42.34375 52.65625 43.234375 52.925781 44.097656 53.285156 C 44.960938 53.640625 45.78125 54.082031 46.5625 54.601562 C 47.339844 55.121094 48.058594 55.710938 48.71875 56.371094 C 49.378906 57.03125 49.972656 57.753906 50.492188 58.53125 C 51.011719 59.308594 51.449219 60.128906 51.808594 60.992188 C 52.164062 61.855469 52.433594 62.746094 52.617188 63.664062 C 52.800781 64.582031 52.890625 65.507812 52.890625 66.445312 Z M 52.890625 66.445312 "/></g><path style=" stroke:none;fill-rule:nonzero;fill:#ffffff;fill-opacity:1;" d="M 40.679688 75.035156 C 40.207031 75.210938 39.972656 74.859375 39.714844 74.398438 C 38.910156 72.949219 38.066406 71.523438 37.226562 70.09375 C 37.128906 69.925781 37.132812 69.796875 37.222656 69.628906 C 37.921875 68.316406 38.613281 67.003906 39.296875 65.6875 C 39.378906 65.535156 39.460938 65.472656 39.640625 65.457031 C 41.140625 65.3125 42.640625 65.148438 44.140625 64.992188 C 44.570312 64.945312 45.003906 64.914062 45.4375 64.867188 C 45.570312 64.851562 45.644531 64.890625 45.71875 65.003906 C 46.523438 66.222656 47.304688 67.457031 47.957031 68.761719 C 48.039062 68.894531 48.035156 69.027344 47.953125 69.15625 C 47.011719 70.902344 46.078125 72.648438 45.152344 74.398438 C 45.054688 74.582031 44.910156 74.582031 44.753906 74.609375 C 43.40625 74.847656 42.046875 74.988281 40.679688 75.035156 Z M 40.679688 75.035156 "/><path style=" stroke:none;fill-rule:nonzero;fill:#ffffff;fill-opacity:1;" d="M 41.808594 55.578125 C 42.371094 55.433594 42.890625 55.710938 43.386719 56.304688 C 44.484375 57.636719 45.660156 58.902344 46.808594 60.1875 C 46.902344 60.289062 46.882812 60.367188 46.847656 60.476562 C 46.5 61.613281 46.027344 62.699219 45.601562 63.800781 C 45.5625 63.929688 45.476562 63.992188 45.34375 63.992188 C 44.03125 64.121094 42.71875 64.253906 41.410156 64.382812 C 40.824219 64.441406 40.242188 64.503906 39.660156 64.570312 C 39.554688 64.59375 39.46875 64.5625 39.40625 64.476562 C 38.683594 63.652344 37.949219 62.84375 37.238281 62.015625 C 36.980469 61.714844 36.699219 61.433594 36.421875 61.15625 C 36.308594 61.046875 36.28125 60.957031 36.332031 60.804688 C 36.851562 59.265625 37.363281 57.722656 37.871094 56.179688 C 37.929688 56.003906 38 55.914062 38.195312 55.890625 C 39.332031 55.75 40.476562 55.664062 41.808594 55.578125 Z M 41.808594 55.578125 "/><path style=" stroke:none;fill-rule:nonzero;fill:#ffffff;fill-opacity:1;" d="M 31.4375 69.480469 C 31.773438 69.5625 32.085938 69.636719 32.402344 69.714844 C 33.617188 70.011719 34.847656 70.242188 36.085938 70.410156 C 36.320312 70.441406 36.476562 70.527344 36.605469 70.753906 C 37.46875 72.28125 38.359375 73.796875 39.238281 75.316406 C 39.296875 75.417969 39.347656 75.503906 39.253906 75.628906 C 38.734375 76.324219 38.222656 77.023438 37.71875 77.726562 C 37.59375 77.898438 37.480469 77.953125 37.253906 77.910156 C 35.335938 77.554688 33.410156 77.214844 31.488281 76.878906 C 31.378906 76.863281 31.289062 76.8125 31.222656 76.722656 C 30.40625 75.707031 29.691406 74.628906 29.070312 73.484375 C 28.984375 73.328125 28.992188 73.222656 29.089844 73.070312 C 29.824219 71.9375 30.546875 70.792969 31.273438 69.65625 C 31.320312 69.585938 31.339844 69.480469 31.4375 69.480469 Z M 31.4375 69.480469 "/><path style=" stroke:none;fill-rule:nonzero;fill:#ffffff;fill-opacity:1;" d="M 34.421875 54.296875 C 34.699219 54.410156 34.976562 54.511719 35.25 54.636719 C 35.839844 54.90625 36.402344 55.226562 36.941406 55.589844 C 37.0625 55.671875 37.09375 55.746094 37.042969 55.898438 C 36.554688 57.351562 36.074219 58.808594 35.59375 60.265625 C 35.558594 60.386719 35.484375 60.464844 35.367188 60.503906 C 33.808594 61.121094 32.320312 61.882812 30.910156 62.792969 C 30.796875 62.863281 30.722656 62.851562 30.621094 62.785156 C 29.699219 62.238281 28.777344 61.6875 27.851562 61.152344 C 27.695312 61.0625 27.660156 60.972656 27.71875 60.804688 C 28.0625 59.820312 28.421875 58.839844 28.964844 57.945312 C 29.238281 57.503906 29.667969 57.171875 30.0625 56.828125 C 31.308594 55.730469 32.714844 54.90625 34.277344 54.351562 Z M 34.421875 54.296875 "/><path style=" stroke:none;fill-rule:nonzero;fill:#ffffff;fill-opacity:1;" d="M 25.644531 66.582031 C 25.636719 65.621094 25.746094 64.675781 25.964844 63.742188 C 26.03125 63.453125 26.230469 63.191406 26.390625 62.929688 C 26.601562 62.585938 26.839844 62.257812 27.0625 61.914062 C 27.128906 61.8125 27.175781 61.765625 27.308594 61.847656 C 28.257812 62.417969 29.210938 62.980469 30.167969 63.539062 C 30.285156 63.605469 30.292969 63.695312 30.296875 63.808594 C 30.332031 64.671875 30.34375 65.539062 30.445312 66.402344 C 30.527344 67.066406 30.609375 67.726562 30.75 68.378906 C 30.808594 68.617188 30.765625 68.835938 30.625 69.03125 C 29.902344 70.132812 29.195312 71.242188 28.503906 72.359375 C 28.398438 72.527344 28.324219 72.53125 28.171875 72.429688 C 27.675781 72.101562 27.21875 71.71875 26.753906 71.347656 C 26.324219 71.007812 26.242188 70.523438 26.109375 70.054688 C 25.792969 68.917969 25.636719 67.761719 25.644531 66.582031 Z M 25.644531 66.582031 "/><path style=" stroke:none;fill-rule:nonzero;fill:#ffffff;fill-opacity:1;" d="M 51.605469 67.652344 C 51.460938 69.515625 50.933594 71.265625 50.03125 72.902344 C 49.128906 74.539062 47.929688 75.917969 46.433594 77.035156 C 46.308594 77.128906 46.265625 77.105469 46.25 76.960938 C 46.164062 76.34375 46.03125 75.738281 45.847656 75.144531 C 45.820312 75.046875 45.835938 74.953125 45.890625 74.871094 C 46.878906 73.03125 47.863281 71.191406 48.847656 69.351562 C 48.90625 69.246094 48.992188 69.171875 49.105469 69.128906 C 49.976562 68.714844 50.824219 68.257812 51.605469 67.652344 Z M 51.605469 67.652344 "/><path style=" stroke:none;fill-rule:nonzero;fill:#ffffff;fill-opacity:1;" d="M 43.585938 54.5625 C 46.738281 55.910156 49.023438 58.109375 50.5 61.234375 C 50.179688 61.042969 49.90625 60.871094 49.628906 60.710938 C 49.035156 60.367188 48.417969 60.074219 47.777344 59.832031 C 47.683594 59.800781 47.601562 59.75 47.53125 59.675781 C 46.226562 58.203125 44.921875 56.730469 43.613281 55.257812 C 43.4375 55.054688 43.554688 54.816406 43.585938 54.5625 Z M 43.585938 54.5625 "/><path style=" stroke:none;fill-rule:nonzero;fill:#fefefe;fill-opacity:1;" d="M 32.40625 77.945312 C 33.5 78.136719 34.589844 78.328125 35.679688 78.519531 C 36.113281 78.597656 36.546875 78.691406 36.980469 78.757812 C 37.242188 78.792969 37.488281 78.867188 37.722656 78.984375 C 38.164062 79.207031 38.617188 79.394531 39.082031 79.554688 C 37.824219 79.738281 34.867188 79.410156 32.359375 78 C 32.339844 77.953125 32.351562 77.933594 32.40625 77.945312 Z M 32.40625 77.945312 "/><g clip-rule="nonzero" clip-path="url(#c611825e7a)"><g clip-rule="nonzero" clip-path="url(#c565966f11)"><g transform="matrix(1,0,0,1,33,59)"><g clip-path="url(#f74b67fa16)"><g clip-rule="nonzero" clip-path="url(#3e34729e9c)"><g clip-rule="nonzero" clip-path="url(#76ad484a92)"><path style=" stroke:none;fill-rule:nonzero;fill:#189e1e;fill-opacity:1;" d="M 0.730469 0.308594 L 21.105469 0.308594 L 21.105469 23.152344 L 0.730469 23.152344 Z M 0.730469 0.308594 "/></g></g></g></g></g></g><g clip-rule="nonzero" clip-path="url(#0db0bd8151)"><g clip-rule="nonzero" clip-path="url(#eee670e2ab)"><g transform="matrix(1,0,0,1,30,72)"><g clip-path="url(#4e683c8c27)"><g clip-rule="nonzero" clip-path="url(#21652e692b)"><g clip-rule="nonzero" clip-path="url(#7e98af9a80)"><path style=" stroke:none;fill-rule:nonzero;fill:#189e1e;fill-opacity:1;" d="M 0.621094 0.542969 L 16.433594 0.542969 L 16.433594 16.359375 L 0.621094 16.359375 Z M 0.621094 0.542969 "/></g></g></g></g></g></g><g clip-rule="nonzero" clip-path="url(#e113546ef7)"><path style=" stroke:none;fill-rule:nonzero;fill:#ffffff;fill-opacity:1;" d="M 49.042969 74.824219 C 47.644531 75.957031 45.855469 76.632812 43.917969 76.632812 C 41.988281 76.632812 40.199219 75.957031 38.800781 74.824219 C 36.378906 76.460938 34.78125 79.246094 34.78125 82.394531 L 34.78125 84.828125 C 34.78125 85.691406 35.496094 86.398438 36.359375 86.398438 L 51.484375 86.398438 C 52.351562 86.398438 53.054688 85.691406 53.054688 84.828125 L 53.054688 82.394531 C 53.054688 79.863281 52.035156 77.582031 50.382812 75.929688 C 49.972656 75.519531 49.527344 75.148438 49.042969 74.824219 Z M 49.042969 74.824219 "/></g><g clip-rule="nonzero" clip-path="url(#76c5204bbc)"><path style=" stroke:none;fill-rule:nonzero;fill:#ffffff;fill-opacity:1;" d="M 43.921875 74.257812 C 47.121094 74.257812 49.707031 71.667969 49.707031 68.472656 C 49.707031 65.277344 47.117188 62.683594 43.921875 62.683594 C 40.726562 62.683594 38.136719 65.273438 38.136719 68.46875 C 38.136719 71.664062 40.722656 74.257812 43.921875 74.257812 Z M 43.921875 74.257812 "/></g></g></svg>