<?xml version="1.0" encoding="UTF-8" standalone="no"?>
<!-- Created with Inkscape (http://www.inkscape.org/) -->

<svg
   version="1.1"
   id="svg11331"
   xml:space="preserve"
   width="682.66669"
   height="682.66669"
   viewBox="0 0 682.66669 682.66669"
   xmlns="http://www.w3.org/2000/svg"
   xmlns:svg="http://www.w3.org/2000/svg"><defs
     id="defs11335"><clipPath
       clipPathUnits="userSpaceOnUse"
       id="clipPath11345"><path
         d="M 0,512 H 512 V 0 H 0 Z"
         id="path11343" /></clipPath></defs><g
     id="g11337"
     transform="matrix(1.3333333,0,0,-1.3333333,0,682.66667)"><g
       id="g11339"><g
         id="g11341"
         clip-path="url(#clipPath11345)"><g
           id="g11347"
           transform="translate(205.9863,279.2568)"><path
             d="M 0,0 C 6.462,21.505 26.433,37.22 50.014,37.22 73.595,37.22 93.565,21.505 100.027,0 Z M 100.027,-30 C 93.565,-51.505 73.595,-67.22 50.014,-67.22 26.433,-67.22 6.462,-51.505 0,-30 Z M 99.963,202.743 C 93.557,182.153 74.321,167.161 51.651,167.161 h -3.275 c -22.67,0 -41.905,14.992 -48.312,35.582 z m -188.388,0 h 57.641 c 7.052,-37.287 39.854,-65.582 79.16,-65.582 h 3.275 c 39.306,0 72.109,28.295 79.161,65.582 h 57.64 c 24.814,0 45,-20.186 45,-45 V 0 H 130.838 C 123.764,38.194 90.226,67.22 50.014,67.22 9.802,67.22 -23.736,38.194 -30.811,0 h -102.614 v 157.743 c 0,24.814 20.187,45 45,45 m 88.489,-452 c 6.407,20.59 25.642,35.582 48.312,35.582 h 3.275 c 22.67,0 41.906,-14.992 48.312,-35.582 z m 188.388,0 h -57.64 c -7.052,37.287 -39.855,65.582 -79.161,65.582 h -3.275 c -39.306,0 -72.108,-28.295 -79.16,-65.582 h -57.641 c -24.813,0 -45,20.187 -45,45 V -30 h 102.614 c 7.075,-38.194 40.613,-67.22 80.825,-67.22 40.212,0 73.75,29.026 80.824,67.22 h 102.614 v -174.257 c 0,-24.813 -20.186,-45 -45,-45 M 275.202,-15 c 0,7.167 -5.03,13.151 -11.75,14.637 v 158.106 c 0,41.356 -33.644,75 -75,75 H -88.425 c -41.355,0 -75,-33.644 -75,-75 V -0.363 c -6.72,-1.486 -11.75,-7.47 -11.75,-14.637 0,-7.167 5.03,-13.151 11.75,-14.637 v -174.62 c 0,-41.355 33.645,-75 75,-75 h 276.877 c 41.356,0 75,33.645 75,75 v 174.62 c 6.72,1.486 11.75,7.47 11.75,14.637"
             style="fill:#000000;fill-opacity:1;fill-rule:nonzero;stroke:none"
             id="path11349" /></g></g></g></g></svg>
