<svg width="682" height="452" viewBox="0 0 682 452" fill="none" xmlns="http://www.w3.org/2000/svg">
<path d="M682 449.665C682 449.818 534.037 449.949 351.54 449.949C169.043 449.949 21.0498 449.818 21.0498 449.665C21.0498 449.513 168.992 449.382 351.54 449.382C534.088 449.382 682 449.513 682 449.665Z" fill="#263238"/>
<path d="M571.154 409.437C570.768 409.893 570.346 410.313 569.893 410.691C569.47 411.073 568.966 411.542 568.411 412.142C567.856 412.742 567.17 413.353 566.515 414.138C565.859 414.923 565.082 415.731 564.336 416.69C563.59 417.65 562.823 418.676 562.026 419.778C558.631 424.634 555.984 430.053 554.189 435.824C553.796 437.165 553.403 438.431 553.181 439.641C552.959 440.852 552.656 441.976 552.455 443.023C552.253 444.07 552.132 445.008 552.001 445.837C551.87 446.666 551.789 447.386 551.739 448.019C551.699 448.635 551.618 449.248 551.496 449.852C551.448 449.235 551.448 448.614 551.496 447.997C551.496 447.397 551.567 446.666 551.668 445.815C551.769 444.965 551.849 444.016 552.051 442.968C552.253 441.921 552.424 440.787 552.727 439.543C553.03 438.3 553.352 437.034 553.736 435.682C554.641 432.773 555.75 429.943 557.054 427.217C558.397 424.515 559.931 421.929 561.643 419.483C562.47 418.392 563.227 417.301 564.023 416.396C564.82 415.491 565.546 414.618 566.262 413.876C566.979 413.134 567.634 412.491 568.219 411.924C568.804 411.356 569.329 410.898 569.772 410.538C570.207 410.134 570.669 409.766 571.154 409.437Z" fill="#263238"/>
<path d="M546.393 425.896C546.87 426.907 547.242 427.972 547.502 429.071C548.244 431.688 548.771 434.371 549.075 437.088C549.39 439.809 549.484 442.553 549.358 445.291C549.354 446.426 549.232 447.557 548.995 448.662C548.933 447.536 548.933 446.407 548.995 445.28C549.044 439.849 548.427 434.435 547.159 429.18C546.846 428.102 546.59 427.006 546.393 425.896Z" fill="#263238"/>
<path d="M540.079 434.296C540.714 434.802 541.275 435.409 541.743 436.096C542.947 437.697 543.948 439.466 544.719 441.354C545.486 443.238 546.012 445.227 546.282 447.266C546.448 448.104 546.482 448.967 546.383 449.818C545.939 446.999 545.218 444.238 544.235 441.583C543.086 439.005 541.693 436.563 540.079 434.296Z" fill="#263238"/>
<path d="M59.6895 407.319C60.0649 407.746 60.4026 408.21 60.6981 408.705C61.2931 409.61 62.1 410.963 63.038 412.675C65.463 417.155 67.4893 421.874 69.0897 426.769C70.658 431.677 71.7894 436.736 72.4685 441.877C72.7207 443.851 72.882 445.455 72.9426 446.556C72.9936 447.133 72.9936 447.714 72.9426 448.291C72.814 447.732 72.7297 447.163 72.6904 446.589C72.5694 445.498 72.3576 443.895 72.0449 441.942C71.2457 436.857 70.0513 431.855 68.4744 426.987C66.8878 422.128 64.9277 417.421 62.6144 412.915C61.7168 411.181 60.9704 409.796 60.4257 408.857C60.1403 408.368 59.894 407.854 59.6895 407.319Z" fill="#263238"/>
<path d="M78.4596 425.101C78.4928 426.273 78.449 427.447 78.3284 428.613C78.2175 430.795 78.0965 433.773 78.1066 437.067C78.1166 440.361 78.2679 443.361 78.4091 445.521C78.5344 446.687 78.5883 447.86 78.5705 449.033C78.2918 447.898 78.1128 446.736 78.0359 445.564C77.4577 439.922 77.4307 434.229 77.9553 428.58C78.0167 427.405 78.1856 426.24 78.4596 425.101Z" fill="#263238"/>
<path d="M88.6463 426.703C88.3364 427.82 87.959 428.913 87.5167 429.976C86.7804 431.983 85.8122 434.775 84.8741 437.906C83.9361 441.037 83.2301 443.905 82.7359 446C82.527 447.147 82.2439 448.277 81.8887 449.381C81.9498 448.211 82.1118 447.05 82.3728 445.913C82.9099 443.149 83.5833 440.418 84.39 437.731C85.186 435.042 86.1187 432.401 87.1839 429.823C87.574 428.733 88.0639 427.688 88.6463 426.703Z" fill="#263238"/>
<path d="M54.2531 433.849C54.5602 433.86 54.8635 433.927 55.1507 434.045C55.9571 434.276 56.7434 434.583 57.5008 434.961C58.6346 435.504 59.7186 436.162 60.7384 436.925C61.9845 437.891 63.1399 438.987 64.1878 440.197C65.216 441.406 66.1315 442.721 66.9212 444.124C67.5575 445.275 68.0944 446.488 68.5249 447.746C68.8247 448.588 69.0575 449.457 69.2208 450.342C69.309 450.66 69.3499 450.991 69.3418 451.324C69.2511 451.324 68.9787 449.971 68.1819 447.898C67.7113 446.685 67.1514 445.514 66.5076 444.397C65.708 443.041 64.8002 441.764 63.7945 440.579C62.7732 439.417 61.6557 438.358 60.456 437.416C59.4529 436.626 58.3901 435.929 57.2789 435.332C55.4533 434.329 54.1925 433.947 54.2531 433.849Z" fill="#263238"/>
<path d="M268.713 309.506C272.182 311.556 317.519 361.342 317.519 361.342L352.821 437.863L367.95 432.409L345.629 352.32C343.972 346.352 340.967 340.924 336.885 336.525L292.506 288.671L268.713 309.506Z" fill="#FFBE9D"/>
<path d="M321.927 370.897L347.455 358.058L370.915 439.869L354.323 445.324C354.323 445.324 323.198 373.645 321.927 370.897Z" fill="#1F9D27"/>
<path d="M328.161 375.391C327.541 374.494 327.064 373.491 326.749 372.424C326.271 371.428 325.954 370.351 325.811 369.239C326.429 370.139 326.909 371.141 327.233 372.206C327.702 373.206 328.015 374.282 328.161 375.391Z" fill="#263238"/>
<path d="M335.241 371.835C334.502 370.952 333.93 369.922 333.556 368.802C333.024 367.759 332.681 366.615 332.548 365.432C333.16 366.405 333.658 367.456 334.031 368.562C334.55 369.599 334.956 370.697 335.241 371.835Z" fill="#263238"/>
<path d="M343.421 368.335C342.267 366.232 341.427 363.946 340.93 361.561C341.587 362.558 342.091 363.663 342.422 364.833C342.918 365.939 343.255 367.119 343.421 368.335Z" fill="#263238"/>
<path d="M327.666 383.344L351.51 371.836L352.226 374.258L328.927 386.071L327.666 383.344Z" fill="#FAFAFA"/>
<path d="M370.471 438.135C364.712 440.644 359.377 442.945 353.638 443.676L355.887 449.97L356.896 449.61C361.535 447.963 380.416 440.884 383.119 438.593C386.145 436.051 370.461 438.135 370.461 438.135" fill="#455A64"/>
<path d="M355.504 449.666L355.796 449.578L356.634 449.284L359.659 448.193C362.231 447.222 365.711 445.837 369.624 444.211C373.538 442.586 376.957 441.026 379.458 439.848L382.403 438.452L383.2 438.048C383.297 438.01 383.388 437.959 383.473 437.896L383.18 438.005L382.373 438.365L379.418 439.695C376.907 440.786 373.427 442.346 369.564 443.971C365.701 445.597 362.181 447.004 359.629 448.018L356.603 449.207L355.827 449.513L355.504 449.666Z" fill="#263238"/>
<path d="M359.771 442.314C359.771 442.314 361.455 442.957 363.553 443.644C365.651 444.332 367.365 444.866 367.375 444.812C367.386 444.757 365.701 444.168 363.603 443.47C361.505 442.772 359.781 442.259 359.771 442.314Z" fill="#FAFAFA"/>
<path d="M362.695 441.201C362.695 441.201 364.259 441.866 366.225 442.575C368.192 443.284 369.806 443.819 369.816 443.775C369.826 443.731 368.253 443.11 366.286 442.401C364.319 441.692 362.705 441.157 362.695 441.201Z" fill="#FAFAFA"/>
<path d="M375.353 439.881C375.282 439.486 375.255 439.084 375.273 438.682C375.339 438.289 375.444 437.905 375.585 437.536C375.298 437.817 375.124 438.209 375.101 438.627C375.058 438.843 375.059 439.067 375.102 439.284C375.146 439.5 375.231 439.704 375.353 439.881Z" fill="#263238"/>
<path d="M377.077 439.564C377.01 439.205 376.966 438.84 376.946 438.474C376.991 438.1 377.079 437.733 377.208 437.383C377.069 437.51 376.958 437.669 376.883 437.848C376.808 438.027 376.771 438.222 376.775 438.419C376.749 438.622 376.762 438.829 376.814 439.026C376.866 439.224 376.956 439.407 377.077 439.564Z" fill="#263238"/>
<path d="M373.628 440.175C373.552 439.751 373.521 439.319 373.538 438.888C373.605 438.466 373.713 438.053 373.86 437.655C373.564 437.983 373.392 438.419 373.376 438.877C373.301 439.329 373.392 439.794 373.628 440.175Z" fill="#263238"/>
<path d="M373.033 437.862C373.132 437.801 373.223 437.728 373.306 437.644C373.544 437.438 373.769 437.216 373.982 436.979C374.302 436.622 374.546 436.194 374.698 435.724C374.785 435.436 374.816 435.132 374.788 434.83C374.781 434.661 374.735 434.496 374.654 434.352C374.573 434.207 374.46 434.086 374.324 434.001C374.193 433.942 374.047 433.936 373.912 433.984C373.776 434.032 373.662 434.131 373.588 434.263C373.452 434.474 373.353 434.711 373.296 434.961C373.168 435.382 373.086 435.817 373.054 436.259C373 436.794 373.024 437.335 373.124 437.862C373.124 437.764 373.175 437.721 373.124 437.721C373.093 437.761 373.065 437.804 373.044 437.851C372.993 437.326 372.993 436.796 373.044 436.27C373.089 435.843 373.177 435.422 373.306 435.015C373.359 434.784 373.451 434.566 373.578 434.372C373.631 434.275 373.713 434.201 373.811 434.164C373.908 434.126 374.015 434.126 374.113 434.164C374.577 434.459 374.546 435.201 374.405 435.67C374.269 436.123 374.045 436.539 373.75 436.892C373.386 437.513 372.973 437.83 373.033 437.862Z" fill="#263238"/>
<path d="M373.094 437.689C373.088 437.591 373.068 437.495 373.033 437.405C372.964 437.144 372.869 436.892 372.751 436.652C372.58 436.295 372.37 435.962 372.125 435.66C371.985 435.477 371.826 435.313 371.651 435.169C371.552 435.067 371.42 435.01 371.283 435.01C371.146 435.01 371.014 435.067 370.915 435.169C370.836 435.286 370.794 435.427 370.794 435.572C370.794 435.717 370.836 435.859 370.915 435.976C371.026 436.181 371.155 436.374 371.298 436.554C371.548 436.853 371.829 437.121 372.136 437.35C372.341 437.502 372.561 437.629 372.791 437.732C372.871 437.782 372.961 437.812 373.053 437.819C372.761 437.644 372.478 437.451 372.206 437.241C371.914 437.012 371.65 436.745 371.419 436.445C371.187 436.129 370.804 435.66 371.066 435.289C371.187 435.125 371.419 435.18 371.591 435.289C371.757 435.428 371.909 435.585 372.045 435.758C372.286 436.046 372.499 436.36 372.68 436.696C372.973 437.296 373.063 437.699 373.094 437.689Z" fill="#263238"/>
<path d="M357.107 443.066C357.453 443.26 357.81 443.428 358.177 443.568L360.759 444.659C361.767 445.084 362.695 445.466 363.371 445.75L364.168 446.044C364.264 446.087 364.366 446.112 364.47 446.121C364.129 445.93 363.775 445.766 363.411 445.63L360.819 444.539C359.811 444.103 358.883 443.732 358.217 443.448L357.41 443.154C357.313 443.11 357.211 443.081 357.107 443.066Z" fill="#FAFAFA"/>
<path d="M257.739 304.074C257.739 304.074 205.03 360.96 198.08 360.273C191.131 359.586 126.58 318.014 126.58 318.014L135.829 302.983L192.311 330.472L232.776 283.326L257.739 304.074Z" fill="#FFBE9D"/>
<path d="M194.237 341.652C192.341 338.298 191.625 334.317 192.22 330.438C192.381 330.438 192.22 333.035 192.825 336.133C193.43 339.231 194.378 341.587 194.237 341.652Z" fill="#EB996E"/>
<path d="M197.344 340.179C194.894 337.361 193.285 333.811 192.725 329.991C192.876 329.991 193.521 332.413 194.802 335.216C196.083 338.02 197.475 340.081 197.344 340.179Z" fill="#EB996E"/>
<path d="M170.606 346.626L181.438 325.202L135.829 302.982L125.965 319.018L170.606 346.626Z" fill="#1F9D27"/>
<path d="M173.843 321.505L163.081 342.449L161.629 341.554L172.139 320.665L173.843 321.505Z" fill="#FAFAFA"/>
<path d="M172.663 342.449C170.569 341.698 168.598 340.594 166.823 339.177C167.894 339.455 168.916 339.919 169.849 340.551C170.875 341.016 171.825 341.657 172.663 342.449Z" fill="#263238"/>
<path d="M175.659 336.689C174.584 336.502 173.543 336.134 172.573 335.598C171.541 335.222 170.568 334.678 169.688 333.983C171.801 334.531 173.817 335.444 175.659 336.689Z" fill="#263238"/>
<path d="M178.392 330.81C177.446 330.526 176.532 330.127 175.669 329.621C174.738 329.284 173.851 328.822 173.026 328.246C174.026 328.295 175.002 328.59 175.881 329.108C176.83 329.454 177.69 330.037 178.392 330.81Z" fill="#263238"/>
<path d="M126.923 318.996C129.727 313.007 132.339 307.477 136.222 302.841L130.695 299.699L130.13 300.714C127.629 305.262 117.795 324.068 117.109 327.668C116.413 331.715 126.923 318.996 126.923 318.996Z" fill="#455A64"/>
<path d="M131.169 299.666C131.169 299.666 131.109 299.753 130.998 299.939L130.554 300.746L128.94 303.768C127.599 306.32 125.793 309.876 123.897 313.858C122.001 317.839 120.317 321.493 119.147 324.133L117.795 327.34C117.664 327.657 117.543 327.94 117.442 328.202C117.394 328.299 117.357 328.401 117.331 328.507C117.331 328.507 117.392 328.409 117.482 328.224C117.573 328.038 117.724 327.689 117.876 327.373C118.259 326.522 118.743 325.486 119.298 324.253C120.508 321.624 122.193 317.992 124.109 314.021C126.025 310.051 127.821 306.473 129.152 303.898L130.705 300.844L131.119 300.015C131.148 299.901 131.165 299.784 131.169 299.666Z" fill="#263238"/>
<path d="M132.44 308.229C132.44 308.229 130.775 308.939 128.778 309.92C126.781 310.902 125.168 311.72 125.188 311.764C125.208 311.807 126.842 311.055 128.849 310.084C130.856 309.113 132.45 308.273 132.44 308.229Z" fill="#FAFAFA"/>
<path d="M130.907 311.142C130.907 311.142 129.323 311.763 127.407 312.636C125.491 313.509 123.958 314.24 123.978 314.283C125.163 313.852 126.328 313.357 127.468 312.8C129.394 311.938 130.907 311.196 130.907 311.142Z" fill="#FAFAFA"/>
<path d="M122.192 321.155C122.482 321.403 122.746 321.685 122.979 321.995C123.173 322.338 123.329 322.704 123.443 323.086C123.46 322.659 123.347 322.238 123.121 321.887C122.895 321.536 122.569 321.275 122.192 321.145V321.155Z" fill="#263238"/>
<path d="M121.083 322.617C121.083 322.672 121.486 322.879 121.839 323.337C122.018 323.642 122.164 323.967 122.273 324.308C122.3 324.113 122.286 323.915 122.234 323.726C122.182 323.538 122.092 323.364 121.971 323.217C121.753 322.906 121.437 322.692 121.083 322.617Z" fill="#263238"/>
<path d="M123.312 319.705C123.618 319.977 123.898 320.28 124.15 320.61C124.36 320.974 124.532 321.362 124.664 321.767C124.664 321.314 124.535 320.872 124.292 320.503C124.05 320.133 123.708 319.855 123.312 319.705Z" fill="#263238"/>
<path d="M125.168 321.024C125.127 321.137 125.1 321.254 125.087 321.373C125.087 321.603 125.007 321.941 124.986 322.366C124.963 322.862 125.042 323.358 125.218 323.817C125.324 324.096 125.482 324.349 125.682 324.559C125.796 324.678 125.933 324.767 126.084 324.818C126.234 324.869 126.394 324.881 126.55 324.853C126.681 324.8 126.791 324.699 126.861 324.567C126.93 324.436 126.956 324.283 126.933 324.133C126.909 323.876 126.844 323.625 126.741 323.392C126.575 322.987 126.368 322.603 126.126 322.246C125.848 321.806 125.508 321.416 125.118 321.09H125.067V321.155C125.065 321.203 125.065 321.25 125.067 321.297C125.067 321.297 125.067 321.297 125.067 321.144C125.728 321.792 126.248 322.589 126.59 323.479C126.685 323.695 126.747 323.928 126.772 324.166C126.791 324.275 126.774 324.389 126.724 324.486C126.675 324.584 126.595 324.659 126.499 324.7C125.975 324.81 125.541 324.231 125.36 323.773C125.186 323.336 125.1 322.864 125.107 322.388C125.118 321.537 125.198 321.024 125.168 321.024Z" fill="#263238"/>
<path d="M125.218 321.2C125.283 321.271 125.358 321.33 125.44 321.374C125.651 321.516 125.874 321.636 126.106 321.734C126.453 321.884 126.815 321.986 127.185 322.04C127.407 322.062 127.629 322.062 127.851 322.04C128.063 322.04 128.406 321.865 128.406 321.516C128.395 321.371 128.344 321.233 128.259 321.12C128.175 321.007 128.06 320.925 127.932 320.883C127.721 320.809 127.505 320.755 127.286 320.72C126.918 320.67 126.545 320.67 126.177 320.72C125.93 320.755 125.687 320.813 125.45 320.894C125.361 320.919 125.276 320.96 125.198 321.014C125.198 321.014 125.571 320.905 126.207 320.85C126.565 320.798 126.928 320.798 127.286 320.85C127.649 320.927 128.224 320.992 128.295 321.472C128.295 321.68 128.093 321.8 127.891 321.821C127.683 321.838 127.474 321.838 127.266 321.821C126.906 321.773 126.551 321.686 126.207 321.56C125.561 321.396 125.239 321.167 125.218 321.2Z" fill="#263238"/>
<path d="M133.933 305.764C133.56 305.867 133.193 305.994 132.834 306.145L130.211 307.16C129.203 307.553 128.265 307.924 127.599 308.251L126.822 308.6L126.54 308.753C126.914 308.651 127.281 308.524 127.639 308.371L130.272 307.356C131.28 306.964 132.218 306.593 132.874 306.265L133.661 305.916C133.933 305.829 133.984 305.775 133.933 305.764Z" fill="#FAFAFA"/>
<path d="M199.21 318.876L232.615 272.363L291.689 276.803L324.227 317.392C324.227 317.392 307.08 337.409 294.775 340.616L259.131 310.477C259.131 310.477 229.983 346.092 230.608 345.067C231.233 344.041 208.681 342.111 199.21 318.876Z" fill="#263238"/>
<path d="M236.71 278.254C236.628 278.431 236.53 278.6 236.417 278.756L235.489 280.119C234.683 281.297 233.472 282.988 231.99 285.05C228.964 289.184 224.748 294.813 219.886 300.878C215.025 306.943 210.476 312.277 207.117 316.073C205.443 317.971 204.091 319.487 203.083 320.523L201.963 321.701C201.839 321.848 201.701 321.98 201.55 322.094C201.55 322.094 201.651 321.92 201.883 321.625L202.891 320.371L206.784 315.8C210.073 311.928 214.581 306.561 219.432 300.529C224.284 294.496 228.51 288.889 231.637 284.821L235.268 280.01L236.276 278.701C236.401 278.532 236.547 278.381 236.71 278.254Z" fill="#FAFAFA"/>
<path d="M241.228 279.464C241.149 279.658 241.043 279.838 240.916 279.998L239.907 281.449C239.04 282.704 237.739 284.503 236.115 286.696C232.867 291.059 228.258 297.081 223.003 303.484C217.748 309.887 212.725 315.483 209.044 319.486C207.208 321.471 205.705 323.064 204.646 324.144L203.416 325.388C203.28 325.541 203.127 325.676 202.962 325.791C203.07 325.611 203.199 325.446 203.345 325.3L204.495 323.991L208.782 319.203C212.392 315.145 217.324 309.494 222.62 303.102C227.915 296.71 232.544 290.776 235.863 286.445L239.796 281.307L240.865 279.922C240.971 279.756 241.093 279.602 241.228 279.464Z" fill="#FAFAFA"/>
<path d="M264.043 285.017C264.118 285.374 264.145 285.742 264.123 286.107C264.123 286.795 264.123 287.787 264.123 289.02C264.123 291.474 263.912 294.867 263.579 298.597C263.417 300.474 263.246 302.241 263.034 303.866C262.873 305.323 262.466 306.735 261.834 308.033C261.391 308.905 260.766 309.652 260.008 310.215C259.742 310.437 259.431 310.59 259.101 310.662C260.122 309.964 260.954 308.985 261.511 307.826C262.58 305.644 262.691 302.241 263.064 298.532C263.438 294.823 263.609 291.42 263.76 288.976C263.784 287.652 263.878 286.329 264.043 285.017Z" fill="#455A64"/>
<path d="M322.543 318.527C322.432 318.625 314.807 309.331 305.518 297.801C296.228 286.271 288.785 276.759 288.896 276.661C289.007 276.563 296.622 285.857 305.921 297.387C315.22 308.917 322.603 318.429 322.543 318.527Z" fill="#FAFAFA"/>
<path d="M220.462 201.809L210.839 177.811L174.62 202.703C170.789 205.33 167.854 209.236 166.259 213.83C162.628 224.247 155.87 243.729 151.907 255.521L149.234 261.553C147.578 265.567 146.153 269.687 144.967 273.89C143.757 279.214 144.251 279.344 144.967 279.475C146.773 279.726 147.469 270.236 148.538 272.483C149.607 274.73 146.299 283.86 148.185 284.057C150.646 284.308 151.211 274.338 151.301 273.498C151.392 272.658 152.663 272.919 152.522 273.661C152.32 274.752 150.505 286.053 152.895 286.326C154.236 286.467 154.045 284.144 154.045 284.144C154.045 284.144 154.963 273.345 156.062 273.519C157.161 273.694 156.909 280.064 156.647 282.191C156.385 284.319 157.313 285.366 158.372 284.799C159.098 284.417 160.056 277.937 160.268 275.821C160.48 273.705 160.944 267.891 163.122 271.174C165.301 274.458 168.165 276.312 169.234 276.323C170.304 276.334 170.546 274.85 169.527 274.141C168.499 273.3 167.574 272.321 166.773 271.229C166.11 270.398 165.578 269.454 165.2 268.436C164.887 267.574 164.645 266.811 164.433 266.124L163.627 261.891L185.372 221.531L220.462 201.809Z" fill="#FFBE9D"/>
<path d="M388.021 163.968C388.747 161.405 397.522 157.085 396.211 155.416C394.507 153.234 387.275 160.434 386.619 160.979C385.964 161.525 385.177 160.336 385.792 159.888C386.68 159.245 395.818 152.078 394.164 149.94C393.246 148.751 391.763 150.714 391.763 150.714C391.763 150.714 383.694 158.219 382.928 157.172C382.161 156.125 386.76 151.511 388.415 150.093C390.069 148.675 390.079 147.137 388.889 146.722C388.072 146.438 382.908 150.605 381.304 152.056C379.7 153.507 375.363 157.51 375.948 153.322C376.533 149.133 375.615 145.369 374.798 144.508C373.981 143.646 372.781 144.584 373.094 145.926C373.305 147.391 373.346 148.879 373.215 150.355C373.148 151.505 372.909 152.635 372.509 153.703C372.156 154.609 371.823 155.394 371.5 156.081L369.322 159.779L322.926 180.505C322.926 180.505 291.558 178.705 290.529 178.705L300.212 203.598L325.911 204.252L373.931 174.374L379.983 171.746C383.995 170.004 387.902 167.993 391.682 165.724C396.241 162.637 395.979 162.114 395.525 161.503C394.325 159.856 387.305 166.542 388.021 163.968Z" fill="#FFBE9D"/>
<path d="M288.431 203.151L291.689 275.243C291.689 275.243 288.532 278.658 268.945 281.385C249.358 284.112 229.135 274.982 229.135 274.982L229.811 241.635L222.115 199.922L224.617 165.583L255.46 159.104L285.718 166.543" fill="#1F9D27"/>
<path d="M179.027 195.471L194.046 221.139L224.364 206.129C224.364 206.129 233.371 197.249 232.746 187.345C232.12 177.44 224.616 165.528 224.616 165.528L179.027 195.471Z" fill="#1F9D27"/>
<path d="M285.678 166.521L310.742 177.363V206.117L286.192 204.012L285.678 166.521Z" fill="#1F9D27"/>
<path d="M217.849 198.493C217.909 198.711 217.98 198.929 218.041 199.136C218.129 199.481 218.279 199.804 218.482 200.087C218.686 200.369 218.939 200.606 219.227 200.783C219.515 200.959 219.832 201.073 220.161 201.117C220.489 201.161 220.823 201.135 221.142 201.04C221.461 200.944 221.76 200.782 222.021 200.562C222.282 200.342 222.501 200.068 222.664 199.757C222.828 199.445 222.933 199.102 222.974 198.747C223.014 198.391 222.99 198.031 222.902 197.685C222.841 197.478 222.771 197.26 222.71 197.042C222.52 196.352 222.09 195.769 221.511 195.415C220.932 195.062 220.248 194.964 219.604 195.144C218.966 195.345 218.425 195.807 218.097 196.433C217.77 197.058 217.68 197.797 217.849 198.493Z" fill="#1F9D27"/>
<path d="M217.748 209.401C217.891 209.271 218.047 209.157 218.212 209.063L219.594 208.201C220.794 207.448 222.559 206.412 224.637 205.005C227.127 203.443 229.313 201.372 231.072 198.907C233.145 195.82 234.526 192.254 235.106 188.49C236.377 180.472 233.946 172.88 230.658 169.019C229.362 167.459 227.617 166.418 225.706 166.062C224.999 165.981 224.285 165.981 223.578 166.062C223.751 165.983 223.935 165.931 224.122 165.91C224.658 165.833 225.201 165.833 225.736 165.91C227.727 166.201 229.563 167.23 230.931 168.822C232.901 171.192 234.316 174.039 235.056 177.123C236.04 180.876 236.236 184.819 235.631 188.664C235.032 192.51 233.605 196.15 231.465 199.289C229.651 201.791 227.395 203.879 224.828 205.43C222.69 206.805 220.905 207.776 219.674 208.463L218.242 209.248C218.084 209.322 217.918 209.373 217.748 209.401Z" fill="#263238"/>
<path d="M290.106 235.864C289.955 235.864 289.037 220.8 288.089 202.202C287.141 183.603 286.414 168.506 286.556 168.495C286.697 168.484 287.625 183.559 288.573 202.169C289.521 220.778 290.267 235.864 290.106 235.864Z" fill="#263238"/>
<path d="M233.119 275.766C233.097 275.52 233.097 275.271 233.119 275.025C233.173 274.479 233.243 273.752 233.331 272.843C233.442 271.916 233.553 270.792 233.654 269.472C233.754 268.152 233.916 266.669 233.997 265.011C234.218 261.738 234.35 257.746 234.339 253.361C234.329 248.976 234.118 244.154 233.674 239.115C233.23 234.075 232.524 229.297 231.788 224.934C231.051 220.571 230.174 216.786 229.357 213.578C228.984 211.975 228.57 210.546 228.227 209.27C227.884 207.993 227.582 206.924 227.309 205.997C227.037 205.07 226.866 204.47 226.725 203.957C226.648 203.719 226.587 203.475 226.543 203.227C226.656 203.445 226.747 203.675 226.815 203.914C226.997 204.426 227.219 205.092 227.501 205.921C227.784 206.75 228.147 207.873 228.51 209.139C228.873 210.404 229.317 211.822 229.72 213.437C230.577 216.622 231.445 220.483 232.262 224.792C233.079 229.101 233.724 233.901 234.198 238.973C234.672 244.045 234.814 248.878 234.824 253.274C234.834 257.67 234.642 261.64 234.37 264.956C234.259 266.614 234.077 268.109 233.946 269.418C233.815 270.727 233.674 271.861 233.533 272.777C233.391 273.694 233.301 274.359 233.22 274.894C233.229 275.188 233.195 275.483 233.119 275.766Z" fill="#263238"/>
<path d="M280.12 235.22C280.072 235.732 279.974 236.236 279.828 236.725C279.703 237.313 279.544 237.893 279.354 238.46C279.132 239.114 278.92 239.889 278.567 240.641C278.227 241.537 277.839 242.411 277.407 243.259C276.932 244.246 276.407 245.204 275.834 246.128C274.512 248.245 272.998 250.215 271.315 252.008C269.606 253.769 267.737 255.341 265.738 256.698C264.8 257.287 263.922 257.866 263.035 258.302C262.234 258.737 261.412 259.126 260.574 259.469C259.888 259.766 259.188 260.021 258.476 260.233C257.948 260.425 257.409 260.578 256.862 260.691C256.402 260.824 255.934 260.915 255.46 260.964C255.46 260.833 257.477 260.429 260.432 259.087C261.255 258.73 262.06 258.326 262.843 257.877C263.7 257.44 264.568 256.84 265.486 256.251C269.421 253.547 272.807 250.006 275.44 245.845C276.015 244.863 276.59 243.958 277.024 243.041C277.469 242.21 277.873 241.355 278.234 240.478C279.566 237.336 280.009 235.187 280.12 235.22Z" fill="#263238"/>
<path d="M269.641 162.714C269.703 162.884 269.741 163.065 269.752 163.248C269.825 163.761 269.866 164.278 269.873 164.797C269.909 167.193 269.443 169.567 268.508 171.74C267.573 173.913 266.195 175.828 264.477 177.342C261.897 179.53 258.674 180.638 255.399 180.461C252.115 180.357 248.988 178.915 246.644 176.425C244.788 174.353 243.554 171.721 243.104 168.877C242.796 166.98 242.871 165.034 243.326 163.172C243.447 162.667 243.609 162.174 243.81 161.699C243.941 161.383 244.022 161.208 244.042 161.219C244.062 161.23 243.79 161.917 243.518 163.226C243.152 165.065 243.134 166.965 243.467 168.811C243.954 171.546 245.175 174.065 246.977 176.054C249.254 178.421 252.263 179.789 255.419 179.894C258.574 180.067 261.683 179.014 264.184 176.927C266.199 175.187 267.748 172.898 268.672 170.295C269.287 168.55 269.628 166.707 269.681 164.841C269.701 163.455 269.59 162.725 269.641 162.714Z" fill="#263238"/>
<path d="M230.587 168.309C230.454 168.465 230.301 168.601 230.134 168.712L228.772 169.803C227.592 170.708 225.867 171.985 223.729 173.566C219.442 176.708 213.471 180.984 206.815 185.565C200.158 190.147 194.056 194.259 189.608 197.085C187.389 198.513 185.573 199.67 184.323 200.444L182.87 201.328C182.707 201.445 182.53 201.54 182.346 201.611C182.486 201.46 182.645 201.331 182.82 201.23L184.222 200.259L189.416 196.735C193.803 193.768 199.865 189.667 206.562 185.075C213.26 180.482 219.21 176.261 223.547 173.195L228.691 169.585L230.103 168.614C230.257 168.498 230.418 168.396 230.587 168.309Z" fill="#FAFAFA"/>
<path d="M233.25 172.062C233.109 172.211 232.953 172.343 232.786 172.455L231.404 173.546C230.204 174.44 228.439 175.728 226.25 177.277C221.863 180.396 215.741 184.585 208.872 189.003C202.003 193.421 195.659 197.25 191.04 199.911C188.73 201.253 186.854 202.322 185.543 203.031L184.03 203.849C183.86 203.956 183.676 204.037 183.485 204.089C183.64 203.957 183.805 203.84 183.98 203.74L185.442 202.835L190.858 199.562C195.437 196.791 201.731 192.93 208.6 188.512C215.468 184.094 221.621 179.96 226.049 176.928L231.293 173.35L232.736 172.39C232.891 172.254 233.065 172.143 233.25 172.062Z" fill="#FAFAFA"/>
<path d="M310.197 180.495C309.851 180.458 309.512 180.37 309.188 180.233C308.573 180.036 307.695 179.72 306.616 179.317C304.458 178.498 301.513 177.266 298.285 175.87L290.015 172.259C288.852 171.814 287.713 171.297 286.605 170.71C286.952 170.738 287.292 170.822 287.614 170.961C288.229 171.157 289.107 171.474 290.186 171.888C292.344 172.706 295.29 173.928 298.517 175.335L306.788 178.935C307.952 179.38 309.091 179.901 310.197 180.495Z" fill="#FAFAFA"/>
<path d="M310.611 182.905C309.426 182.6 308.26 182.214 307.121 181.749L298.78 178.716L290.459 175.629L287.957 174.636C287.641 174.542 287.338 174.398 287.06 174.211C287.387 174.232 287.71 174.306 288.018 174.429C288.623 174.604 289.5 174.887 290.58 175.247C292.728 175.956 295.693 176.993 298.951 178.182C302.209 179.371 305.144 180.505 307.252 181.367C308.26 181.803 309.148 182.163 309.733 182.458C310.318 182.752 310.631 182.861 310.611 182.905Z" fill="#FAFAFA"/>
<path d="M257.729 207.415V231.631H252.545V211.909H248.066V207.415H257.729Z" fill="#FAFAFA"/>
<path d="M280.121 223.985C280.121 228.937 276.379 232.046 271.648 232.046C265.466 232.046 261.633 227.857 261.633 220.047C261.633 211.67 266.303 206.957 273.05 206.957C275.231 206.891 277.389 207.464 279.294 208.615L277.367 212.804C276.115 211.957 274.657 211.535 273.181 211.593C269.439 211.593 267.039 213.982 266.878 218.618C267.618 217.872 268.49 217.294 269.441 216.919C270.393 216.545 271.404 216.38 272.415 216.437C276.732 216.447 280.121 219.414 280.121 223.985ZM275.078 224.269C275.078 222.087 273.575 220.625 271.275 220.625C268.976 220.625 267.402 222.152 267.402 224.269C267.402 226.385 268.844 227.857 271.336 227.857C273.565 227.857 275.138 226.483 275.138 224.269H275.078Z" fill="#FAFAFA"/>
<g opacity="0.2">
<path d="M265.798 257.331C262.758 258.843 259.493 259.755 256.156 260.025C254.485 260.142 252.811 259.862 251.252 259.204C249.692 258.547 248.285 257.527 247.129 256.218C244.95 253.491 244.516 249.04 246.665 246.281C248.5 243.935 251.637 243.303 254.471 243.445C257.306 243.586 260.14 244.35 262.984 244.165C267.051 243.697 270.859 241.778 273.806 238.71C276.73 235.665 279.331 232.277 281.563 228.609C280.936 234.677 279.021 240.505 275.966 245.639C272.911 250.773 268.799 255.073 263.952 258.203" fill="black"/>
</g>
<g opacity="0.2">
<path d="M227.844 229.231C230.629 225.101 232.421 220.287 233.06 215.223C233.699 210.158 233.165 205.001 231.505 200.215C231.405 199.943 231.273 199.648 231.021 199.561C230.887 199.546 230.751 199.564 230.623 199.613C230.496 199.662 230.38 199.741 230.285 199.844L222.852 205.822C224.405 213.676 225.965 221.526 227.531 229.373" fill="black"/>
</g>
<path d="M256.529 178.661C259.542 178.598 262.419 177.294 264.574 175.016C266.729 172.738 268 169.657 268.128 166.401C268.319 161.448 268.481 156.91 268.481 156.91C268.481 156.91 278.052 155.82 278.627 145.544C279.202 135.269 278.627 111.598 278.627 111.598C273.341 108.801 267.459 107.583 261.591 108.071C255.723 108.558 250.083 110.732 245.253 114.368L243.79 115.459L244.486 166.052C244.508 167.736 244.838 169.398 245.456 170.944C246.073 172.491 246.967 173.889 248.086 175.061C249.205 176.233 250.527 177.154 251.976 177.771C253.424 178.389 254.972 178.692 256.529 178.661Z" fill="#FFBE9D"/>
<path d="M268.501 156.757C264.111 156.621 259.859 155.071 256.287 152.307C256.287 152.307 258.879 159.855 268.39 159.419L268.501 156.757Z" fill="#EB996E"/>
<path d="M244.476 126.172C244.315 126.084 238.041 123.739 237.93 130.775C237.819 137.811 244.375 136.469 244.395 136.229C244.415 135.989 244.476 126.172 244.476 126.172Z" fill="#FFBE9D"/>
<path d="M242.449 133.567C242.449 133.567 242.328 133.654 242.136 133.741C241.864 133.859 241.561 133.859 241.289 133.741C240.874 133.444 240.54 133.032 240.32 132.55C240.101 132.067 240.003 131.529 240.038 130.993C240.026 130.39 240.144 129.793 240.381 129.247C240.443 129.027 240.555 128.827 240.706 128.665C240.858 128.503 241.044 128.384 241.248 128.32C241.378 128.285 241.515 128.3 241.635 128.364C241.756 128.428 241.851 128.536 241.904 128.669C241.995 128.865 241.955 129.007 241.985 129.018C242.015 129.029 242.126 128.898 242.076 128.615C242.045 128.437 241.955 128.278 241.823 128.167C241.738 128.092 241.639 128.037 241.534 128.003C241.428 127.969 241.318 127.958 241.208 127.971C240.938 128.025 240.686 128.155 240.475 128.346C240.265 128.537 240.104 128.783 240.008 129.062C239.719 129.665 239.573 130.336 239.584 131.014C239.541 131.641 239.67 132.267 239.956 132.815C240.241 133.362 240.67 133.806 241.188 134.09C241.358 134.141 241.536 134.152 241.71 134.122C241.884 134.092 242.05 134.021 242.197 133.916C242.429 133.741 242.469 133.578 242.449 133.567Z" fill="#EB996E"/>
<path d="M274.129 128.254C274.129 128.635 273.993 129.002 273.748 129.277C273.504 129.551 273.17 129.713 272.818 129.727C272.645 129.742 272.472 129.719 272.307 129.66C272.143 129.602 271.991 129.508 271.861 129.385C271.73 129.262 271.623 129.113 271.547 128.945C271.471 128.777 271.426 128.594 271.416 128.407C271.416 128.024 271.552 127.657 271.796 127.38C272.04 127.104 272.374 126.94 272.727 126.923C272.901 126.908 273.075 126.931 273.24 126.991C273.405 127.05 273.557 127.144 273.688 127.269C273.819 127.393 273.925 127.544 274.001 127.713C274.077 127.882 274.12 128.066 274.129 128.254Z" fill="#263238"/>
<path d="M275.722 125.658C275.561 125.855 274.532 125.026 273.07 125.026C271.607 125.026 270.538 125.822 270.377 125.637C270.216 125.451 270.468 125.2 270.942 124.829C271.573 124.359 272.323 124.108 273.09 124.109C273.85 124.111 274.591 124.371 275.208 124.851C275.662 125.222 275.813 125.538 275.722 125.658Z" fill="#263238"/>
<path d="M260.009 128.538C260.014 128.922 259.88 129.293 259.635 129.571C259.389 129.848 259.053 130.01 258.698 130.022C258.525 130.037 258.351 130.014 258.187 129.954C258.022 129.895 257.87 129.8 257.741 129.676C257.611 129.552 257.505 129.401 257.43 129.231C257.356 129.062 257.313 128.878 257.306 128.691C257.3 128.309 257.433 127.94 257.677 127.662C257.92 127.385 258.254 127.222 258.607 127.208C258.78 127.193 258.955 127.216 259.12 127.275C259.285 127.334 259.437 127.429 259.568 127.553C259.698 127.677 259.805 127.828 259.881 127.997C259.956 128.166 260 128.35 260.009 128.538Z" fill="#263238"/>
<path d="M261.36 125.953C261.189 126.15 260.16 125.321 258.698 125.332C257.235 125.343 256.166 126.117 256.015 125.932C255.863 125.746 256.105 125.495 256.569 125.124C257.204 124.653 257.958 124.405 258.728 124.415C259.488 124.409 260.23 124.665 260.846 125.146C261.29 125.539 261.441 125.866 261.36 125.953Z" fill="#263238"/>
<path d="M266.666 137.679C267.435 137.417 268.231 137.259 269.036 137.21C269.409 137.21 269.762 137.09 269.833 136.817C269.857 136.399 269.769 135.983 269.58 135.617L268.471 132.541C266.938 128.178 265.828 124.567 266 124.502C266.171 124.436 267.533 127.938 269.026 132.312C269.399 133.403 269.752 134.417 270.034 135.399C270.27 135.889 270.337 136.453 270.226 136.992C270.167 137.131 270.082 137.256 269.976 137.357C269.87 137.459 269.746 137.535 269.611 137.581C269.407 137.639 269.196 137.668 268.985 137.668C268.215 137.77 267.437 137.774 266.666 137.679Z" fill="#263238"/>
<path d="M261.733 119.757C261.592 120.193 260.13 119.986 258.415 120.204C256.701 120.422 255.319 120.935 255.087 120.553C254.986 120.368 255.228 119.964 255.793 119.55C256.536 119.041 257.376 118.722 258.249 118.616C259.123 118.51 260.007 118.621 260.836 118.939C261.481 119.223 261.804 119.55 261.733 119.757Z" fill="#263238"/>
<path d="M275.188 121.088C274.936 121.448 273.927 121.088 272.717 121.088C271.506 121.088 270.478 121.328 270.246 120.946C270.135 120.772 270.296 120.412 270.75 120.074C271.357 119.654 272.066 119.442 272.786 119.466C273.506 119.489 274.202 119.746 274.784 120.204C275.137 120.543 275.299 120.913 275.188 121.088Z" fill="#263238"/>
<path d="M283.469 104.813C283.535 104.176 283.452 103.53 283.226 102.937C283 102.344 282.64 101.822 282.178 101.42C281.698 101.043 281.111 100.863 280.52 100.911C279.928 100.959 279.372 101.232 278.95 101.682C279.039 101.252 279.044 100.807 278.963 100.376C278.883 99.9439 278.719 99.5353 278.483 99.1763C278.248 98.8173 277.945 98.516 277.594 98.2918C277.244 98.0677 276.853 97.9258 276.449 97.8752C274.896 97.7661 273.574 99.0315 272.072 99.4787C270.576 99.8234 269.017 99.6279 267.634 98.9224C266.232 98.3116 264.91 97.4716 263.488 96.9044C260.476 95.7059 257.147 95.8441 254.228 97.2887C251.309 98.7333 249.036 101.367 247.905 104.617C246.843 104.333 245.727 104.406 244.703 104.825C243.68 105.244 242.799 105.989 242.176 106.962C240.964 108.952 240.479 111.359 240.815 113.714C241.017 115.291 241.382 116.839 241.904 118.328C241.904 118.459 241.904 118.59 241.904 118.721C242.005 124.371 242.6 131.014 244.829 131.058C248.712 131.124 247.784 123.193 247.784 123.193C252.565 121.197 250.81 113.463 251.98 112.285C253.15 111.107 255.672 108.38 265.657 113.91C269.379 115.705 273.528 116.189 277.518 115.296L277.76 115.241H277.821H277.901C278.806 114.999 279.671 114.605 280.463 114.074C281.403 113.494 282.146 112.603 282.581 111.532C282.798 110.989 282.861 110.389 282.765 109.807C282.668 109.225 282.415 108.687 282.037 108.26C282.814 107.286 283.311 106.088 283.469 104.813Z" fill="#263238"/>
<path d="M268.188 142.762C266.767 143.14 265.283 143.14 263.861 142.762C265.283 142.385 266.767 142.385 268.188 142.762Z" fill="#263238"/>
<path d="M280.948 448.979C294.495 448.979 305.478 437.101 305.478 422.45C305.478 407.798 294.495 395.921 280.948 395.921C267.401 395.921 256.419 407.798 256.419 422.45C256.419 437.101 267.401 448.979 280.948 448.979Z" fill="#E0E0E0"/>
<path d="M292.869 418.632L294.362 408.499L285.9 403.841L279.192 411.106L283.499 420.247L292.869 418.632Z" fill="#263238"/>
<path d="M271.467 429.551L270.196 438.212L277.478 444.473L283.238 439.685L279.526 430.456L271.467 429.551Z" fill="#263238"/>
<path d="M263.65 406.938L257.699 413.451L260.725 422.963L268.542 422.33L269.994 412.404L263.65 406.938Z" fill="#263238"/>
<path d="M279.919 411.105C278.301 411.548 276.651 411.847 274.987 411.999C273.324 412.326 271.634 412.457 269.944 412.392C271.553 411.888 273.206 411.566 274.876 411.432C277.66 411.061 279.909 410.919 279.919 411.105Z" fill="#263238"/>
<path d="M263.842 407.353C265.392 405.663 267.061 404.106 268.834 402.695C270.5 401.138 272.278 399.727 274.15 398.474C272.601 400.169 270.932 401.73 269.157 403.142C267.493 404.698 265.715 406.106 263.842 407.353Z" fill="#263238"/>
<path d="M286.697 405.88C286.556 405.956 285.497 404.08 283.913 401.985C282.33 399.891 280.888 398.386 280.948 398.255C282.26 399.136 283.403 400.28 284.317 401.626C285.361 402.861 286.17 404.306 286.697 405.88Z" fill="#263238"/>
<path d="M300.626 406.611C299.598 407.267 298.487 407.756 297.328 408.062C296.209 408.536 295.034 408.838 293.838 408.957C294.875 408.303 295.997 407.821 297.166 407.528C298.274 407.049 299.439 406.74 300.626 406.611Z" fill="#263238"/>
<path d="M301.362 427.751C299.773 426.174 298.303 424.464 296.964 422.635C295.504 420.935 294.171 419.111 292.98 417.181C294.569 418.75 296.036 420.458 297.368 422.286C298.828 423.993 300.163 425.82 301.362 427.751Z" fill="#263238"/>
<path d="M277.64 432.736C277.75 431.98 277.96 431.245 278.265 430.554C278.729 429.256 279.445 427.489 280.282 425.591C281.119 423.693 282.057 422.024 282.743 420.846C283.073 420.18 283.487 419.567 283.974 419.024C284.105 419.112 282.501 422.068 280.746 425.842C278.991 429.616 277.781 432.802 277.64 432.736Z" fill="#263238"/>
<path d="M296.037 436.478C293.977 437.303 291.859 437.945 289.702 438.397C286.172 439.292 283.268 439.892 283.237 439.685C283.833 439.416 284.451 439.208 285.083 439.063C286.223 438.725 287.816 438.288 289.592 437.841C291.704 437.209 293.859 436.753 296.037 436.478Z" fill="#263238"/>
<path d="M270.196 438.212C268.807 438.521 267.387 438.638 265.97 438.561C264.561 438.668 263.146 438.591 261.754 438.332C263.136 438.02 264.55 437.903 265.96 437.983C267.375 437.878 268.797 437.955 270.196 438.212Z" fill="#263238"/>
<path d="M272.869 432.638C271.852 430.912 270.988 429.086 270.287 427.184C269.428 425.348 268.725 423.431 268.189 421.457C269.199 423.186 270.06 425.012 270.761 426.911C271.622 428.748 272.327 430.664 272.869 432.638Z" fill="#263238"/>
<path d="M281.19 449.208C280.403 448.56 279.721 447.775 279.173 446.884C278.481 446.105 277.921 445.201 277.519 444.212C278.31 444.851 278.992 445.633 279.536 446.524C280.227 447.309 280.786 448.217 281.19 449.208Z" fill="#263238"/>
<path d="M295.068 436.478L300.485 427.021L305.124 425.93V426.028C305.042 428.992 304.368 431.902 303.15 434.558C301.931 437.215 300.196 439.555 298.064 441.419L295.038 436.511" fill="#263238"/>
<path d="M281.361 398.637L274.129 398.463C274.129 398.463 274.018 396.608 278.093 396.118C282.168 395.627 283.872 396.118 283.872 396.118L281.361 398.637Z" fill="#263238"/>
<path d="M257.729 431.951C258.079 430.332 258.565 428.751 259.182 427.228C259.631 425.636 260.205 424.089 260.897 422.603C260.701 424.264 260.29 425.887 259.676 427.424C259.223 429.023 258.568 430.546 257.729 431.951Z" fill="#263238"/>
<path d="M255.158 421.151C255.158 421.315 248.431 421.533 240.14 421.664C231.849 421.795 225.102 421.762 225.102 421.598C225.102 421.435 231.829 421.217 240.13 421.097C248.431 420.977 255.158 421.031 255.158 421.151Z" fill="#263238"/>
<path d="M249.116 425.864C249.116 426.017 239.03 426.158 226.675 426.18C214.319 426.202 204.243 426.082 204.243 425.929C204.243 425.777 214.329 425.624 226.675 425.613C239.02 425.602 249.116 425.711 249.116 425.864Z" fill="#263238"/>
<path d="M593.464 435.507C578.627 425.57 574.371 405.727 574.018 387.685C573.968 384.675 573.494 381.522 574.684 378.806C575.874 376.09 578.869 374.104 581.421 375.217C583.539 376.144 584.568 378.697 585.829 380.769C587.519 383.544 589.9 385.745 592.697 387.118C594.513 388.002 596.732 388.482 598.426 387.336C600.756 385.765 600.857 382.166 600.686 379.177C600.376 373.606 600.06 368.036 599.738 362.465C599.419 359.485 599.549 356.468 600.121 353.532C600.837 350.652 602.602 347.903 605.164 346.987C607.726 346.07 611.084 347.477 611.79 350.379C611.958 351.611 612.049 352.854 612.063 354.099C612.074 354.719 612.255 355.322 612.584 355.831C612.912 356.34 613.374 356.732 613.909 356.957C615.028 357.24 616.097 356.324 616.874 355.397C619.577 352.212 621.312 348.208 622.925 344.238C624.539 340.267 626.092 336.198 628.513 332.751C630.934 329.304 634.383 326.479 638.337 325.999C642.291 325.519 646.638 327.919 647.848 332.064C649.059 336.209 647.011 340.627 644.711 344.183C641.295 349.459 637.195 354.176 632.537 358.189C631.629 358.818 630.924 359.737 630.52 360.818C630.026 362.847 631.872 364.723 633.718 365.269C635.815 365.891 638.045 365.531 640.213 365.672C642.382 365.814 644.772 366.709 645.7 368.869C646.981 371.857 644.782 375.195 642.563 377.432C638.126 381.912 633.008 385.532 627.434 388.132C625.417 389.06 623.339 389.889 621.786 391.536C620.232 393.183 619.365 395.899 620.464 397.972C621.564 400.044 624.136 400.535 626.244 399.99C628.352 399.444 630.198 398.07 632.184 397.121C635.906 395.343 640.828 395.332 643.44 398.735C644.234 399.904 644.768 401.255 645.003 402.683C645.237 404.111 645.165 405.578 644.792 406.971C644.01 409.768 642.713 412.365 640.979 414.607C635.359 422.79 627.831 429.212 619.163 433.216C610.52 437.045 602.4 438.419 593.464 435.474" fill="#1F9D27"/>
<path d="M593.929 448.869C594.271 440.474 595.362 432.134 597.186 423.965C599.452 413.982 602.247 404.149 605.558 394.513C606.412 391.946 607.266 389.401 608.12 386.877C608.957 384.39 609.794 381.925 610.752 379.558C612.605 375.033 614.682 370.62 616.975 366.337C619.144 362.236 621.343 358.429 623.42 354.894C625.498 351.36 627.505 348.088 629.472 345.208C632.513 340.632 635.886 336.324 639.558 332.325C640.849 330.918 641.888 329.86 642.584 329.151L643.401 328.344L643.683 328.082C643.61 328.194 643.525 328.296 643.431 328.387L642.655 329.227C641.959 329.958 640.95 331.049 639.629 332.5C636.023 336.546 632.702 340.877 629.694 345.459C627.778 348.35 625.801 351.611 623.733 355.156C621.665 358.701 619.497 362.519 617.349 366.621C615.066 370.886 613.006 375.285 611.176 379.798C610.228 382.154 609.391 384.598 608.554 387.096C607.716 389.594 606.859 392.124 605.992 394.731C602.693 404.34 599.891 414.14 597.6 424.085C595.766 432.222 594.642 440.527 594.241 448.891" fill="#263238"/>
<path d="M610.903 379.602C610.748 379.195 610.637 378.77 610.57 378.336C610.379 377.518 610.147 376.329 609.874 374.846C609.33 371.9 608.714 367.788 608.049 363.261C607.383 358.734 606.707 354.644 606.122 351.709C605.84 350.237 605.588 349.048 605.416 348.23C605.297 347.811 605.223 347.379 605.194 346.942C605.374 347.336 605.512 347.749 605.608 348.175C605.84 348.982 606.142 350.16 606.475 351.622C607.151 354.545 607.877 358.636 608.493 363.174C609.108 367.712 609.733 371.693 610.177 374.78L610.711 378.293C610.815 378.721 610.88 379.16 610.903 379.602Z" fill="#263238"/>
<path d="M646.073 370.298C645.616 370.439 645.146 370.531 644.671 370.57C643.764 370.712 642.442 370.909 640.829 371.214C637.591 371.781 633.153 372.741 628.292 374.039C623.43 375.337 619.083 376.723 615.956 377.813C614.393 378.359 613.142 378.828 612.265 379.144C611.824 379.339 611.369 379.492 610.903 379.602C611.311 379.329 611.748 379.11 612.204 378.948C613.052 378.555 614.292 378.032 615.845 377.443C618.942 376.254 623.299 374.803 628.171 373.494C632.327 372.367 636.536 371.475 640.778 370.821C642.402 370.57 643.733 370.429 644.651 370.352C645.123 370.293 645.599 370.275 646.073 370.298Z" fill="#263238"/>
<path d="M597.59 423.235C597.481 423.096 597.39 422.942 597.318 422.777L596.642 421.424C596.057 420.246 595.26 418.512 594.292 416.363C592.345 412.065 589.844 406.033 587.161 399.335C584.478 392.637 582.027 386.583 580.181 382.242L577.973 377.104C577.731 376.548 577.539 376.09 577.378 375.708C577.297 375.551 577.239 375.382 577.206 375.206C577.309 375.343 577.397 375.494 577.468 375.653L578.144 377.006C578.729 378.184 579.536 379.918 580.504 382.067C582.441 386.376 584.942 392.408 587.625 399.106C590.308 405.804 592.759 411.858 594.615 416.188L596.823 421.326C597.055 421.882 597.257 422.351 597.419 422.722C597.495 422.885 597.553 423.057 597.59 423.235Z" fill="#263238"/>
<path d="M643.986 403.96C643.84 404.059 643.685 404.139 643.522 404.2L642.181 404.778L637.208 406.851C633.012 408.607 627.253 411.094 620.879 413.854C614.504 416.614 608.715 419.057 604.489 420.715C602.371 421.544 600.656 422.199 599.446 422.624L598.074 423.104C597.914 423.164 597.748 423.207 597.58 423.235C597.72 423.131 597.873 423.05 598.034 422.995L599.385 422.417L604.348 420.344C608.544 418.588 614.313 416.101 620.687 413.341C627.062 410.581 632.791 408.138 637.077 406.48C639.185 405.651 640.91 404.996 642.12 404.571L643.502 404.091C643.657 404.024 643.82 403.98 643.986 403.96Z" fill="#263238"/>
<path d="M131.271 422.657C130.07 424.522 127.74 423.9 126.651 422.766C125.659 421.52 124.984 420.016 124.694 418.402C123.746 414.825 122.778 411.072 123.494 407.429C123.663 406.323 124.11 405.29 124.785 404.44C125.129 404.022 125.568 403.71 126.058 403.533C126.548 403.357 127.073 403.324 127.579 403.436C128.144 403.685 128.653 404.061 129.074 404.539C129.495 405.016 129.817 405.585 130.02 406.207C131.579 409.713 132.395 413.552 132.41 417.442C132.521 419.258 132.124 421.067 131.271 422.635" fill="#1F9D27"/>
<g opacity="0.2">
<path d="M131.271 422.657C130.07 424.522 127.74 423.9 126.651 422.766C125.659 421.52 124.984 420.016 124.694 418.402C123.746 414.825 122.778 411.072 123.494 407.429C123.663 406.323 124.11 405.29 124.785 404.44C125.129 404.022 125.568 403.71 126.058 403.533C126.548 403.357 127.073 403.324 127.579 403.436C128.144 403.685 128.653 404.061 129.074 404.539C129.495 405.016 129.817 405.585 130.02 406.207C131.579 409.713 132.395 413.552 132.41 417.442C132.521 419.258 132.124 421.067 131.271 422.635" fill="black"/>
</g>
<path d="M126.772 432.06C124.754 431.043 122.49 430.746 120.306 431.209C119.114 431.327 117.993 431.872 117.119 432.758C116.71 433.222 116.481 433.839 116.481 434.481C116.481 435.123 116.71 435.74 117.119 436.205C117.713 436.633 118.426 436.825 119.136 436.75C120.841 436.75 122.737 436.401 124.109 437.514C124.886 438.157 125.4 439.204 126.328 439.521C126.794 439.637 127.282 439.587 127.719 439.376C128.156 439.165 128.517 438.806 128.749 438.354C129.193 437.429 129.294 436.356 129.031 435.354C128.915 434.654 128.65 433.992 128.258 433.42C127.866 432.849 127.358 432.383 126.772 432.06Z" fill="#1F9D27"/>
<path d="M134.579 425.329C133.956 424.459 133.538 423.439 133.363 422.355C133.187 421.272 133.258 420.158 133.57 419.111C134.231 417.025 135.41 415.175 136.979 413.766C138.742 412.054 140.798 410.731 143.031 409.872C143.902 409.496 144.837 409.325 145.774 409.37C146.242 409.4 146.696 409.553 147.096 409.816C147.497 410.078 147.832 410.442 148.074 410.876C148.72 412.206 148.074 413.81 147.439 415.119C146.256 417.412 144.907 419.601 143.404 421.664C142.306 423.433 140.782 424.844 138.997 425.744C137.171 426.507 135.265 426.409 134.296 425.045" fill="#1F9D27"/>
<path d="M131.351 450.67C131.295 450.39 131.261 450.105 131.25 449.819C131.189 449.208 131.119 448.434 131.038 447.517C130.957 446.601 130.806 445.401 130.564 444.147C130.283 442.785 129.902 441.45 129.424 440.154C128.956 438.864 128.321 437.652 127.538 436.555C126.912 435.642 126.101 434.895 125.168 434.373C124.533 434.033 123.852 433.805 123.151 433.697C122.889 433.684 122.629 433.644 122.374 433.577C122.635 433.54 122.9 433.54 123.161 433.577C123.883 433.638 124.59 433.837 125.249 434.166C126.23 434.674 127.089 435.42 127.76 436.347C128.578 437.461 129.237 438.7 129.717 440.023C130.199 441.338 130.574 442.696 130.836 444.081C131.043 445.209 131.185 446.349 131.26 447.495C131.32 448.477 131.351 449.263 131.361 449.819C131.392 450.102 131.388 450.388 131.351 450.67Z" fill="#263238"/>
<path d="M131.21 448.891C131.194 448.761 131.194 448.629 131.21 448.499V447.408C131.21 446.437 131.21 445.03 131.159 443.295C131.089 439.816 130.806 435.027 130.272 429.758C129.737 424.49 129.021 419.755 128.376 416.352C128.224 415.501 128.063 414.727 127.922 414.061C127.781 413.396 127.66 412.807 127.549 412.338C127.438 411.869 127.367 411.531 127.307 411.247C127.273 411.123 127.253 410.995 127.246 410.865C127.3 410.979 127.341 411.1 127.367 411.225L127.67 412.316C127.801 412.774 127.942 413.352 128.093 414.029C128.245 414.705 128.426 415.458 128.598 416.308C129.492 420.742 130.166 425.225 130.615 429.736C131.149 435.016 131.391 439.816 131.412 443.295C131.412 445.041 131.412 446.448 131.351 447.419C131.351 447.877 131.351 448.248 131.291 448.51C131.274 448.639 131.247 448.767 131.21 448.891Z" fill="#263238"/>
<path d="M131.19 439.619C131.163 439.231 131.163 438.841 131.19 438.452C131.19 437.699 131.331 436.62 131.523 435.289C131.764 433.733 132.084 432.193 132.481 430.675C132.956 428.813 133.552 426.99 134.266 425.22C135.501 421.959 137.275 418.969 139.501 416.396C139.888 415.951 140.302 415.536 140.741 415.152C140.923 414.978 141.094 414.814 141.266 414.672L141.74 414.312C142.025 414.077 142.329 413.869 142.647 413.69C141.603 414.581 140.609 415.539 139.672 416.559C137.516 419.157 135.787 422.134 134.558 425.362C133.849 427.135 133.249 428.957 132.763 430.816C132.356 432.32 132.019 433.846 131.754 435.387C131.523 436.696 131.401 437.776 131.321 438.518C131.298 438.887 131.255 439.255 131.19 439.619Z" fill="#263238"/>
</svg>
